<svg width="86" height="86" viewBox="0 0 86 86" fill="none" xmlns="http://www.w3.org/2000/svg">
<circle cx="43" cy="43" r="43" fill="#2C7FFF"/>
<path d="M61.2175 39.0235H54.9241V22.7448C54.9241 20.6742 53.2078 18.9607 51.1338 18.9607H35.4718C33.3979 18.9607 31.6815 20.6742 31.6815 22.7448V39.0235H25.4596C23.3857 39.0235 21.6693 40.7371 21.6693 42.8076V58.5152C21.6693 60.5857 23.3857 62.2993 25.4596 62.2993H61.2175C63.2915 62.2993 65.0079 60.5857 65.0079 58.5152V42.7362C65.0079 40.6657 63.2915 39.0235 61.2175 39.0235ZM34.9712 22.7448C34.9712 22.4592 35.1858 22.1736 35.5434 22.1736H51.2768C51.5629 22.1736 51.849 22.3878 51.849 22.7448V39.0235H43.3386H34.9712V22.7448ZM24.959 58.4438V42.7362C24.959 42.4506 25.1736 42.165 25.5311 42.165H41.8367V58.9436H25.4596C25.1736 59.015 24.959 58.7294 24.959 58.4438ZM61.7897 58.4438C61.7897 58.7294 61.5751 59.015 61.2175 59.015H44.9834V42.2364H53.3508H61.2175C61.5036 42.2364 61.7897 42.4506 61.7897 42.8076V58.4438Z" fill="white"/>
<path d="M46.6283 35.0255C46.9144 35.5252 47.4865 35.8108 47.9871 35.8108C48.2732 35.8108 48.5592 35.7394 48.7738 35.5966C49.5604 35.1682 49.775 34.1687 49.3459 33.3833L44.6258 25.5295C44.3398 25.0297 43.8392 24.7441 43.267 24.7441C42.6949 24.7441 42.1943 25.0297 41.9082 25.5295L37.1882 33.3833C36.7591 34.1687 36.9737 35.0968 37.7603 35.5966C38.547 36.025 39.4767 35.8108 39.9773 35.0255L43.267 29.4564L46.6283 35.0255Z" fill="white"/>
<path d="M33.8985 43.6646H29.6791C28.8209 43.6646 28.0342 44.3785 28.0342 45.3067V50.5902V55.945C28.0342 56.8018 28.7493 57.5872 29.6791 57.5872H33.8985C35.9009 57.5872 37.5458 55.945 37.5458 53.9459V52.6607C37.5458 51.9467 37.3312 51.2327 36.9021 50.6616C37.2597 50.0904 37.5458 49.3764 37.5458 48.6624V47.3772C37.5458 45.3067 35.9009 43.6646 33.8985 43.6646ZM31.3239 46.8775H33.97C34.1845 46.8775 34.3991 47.0917 34.3991 47.3058V48.591C34.3991 48.8052 34.1845 49.0194 33.97 49.0194H31.3239V46.8775ZM34.3276 53.8745C34.3276 54.0887 34.113 54.3029 33.8985 54.3029H31.2524V52.1609H33.8985C34.113 52.1609 34.3276 52.3751 34.3276 52.5893V53.8745Z" fill="white"/>
<path d="M55.9253 52.6603C55.3532 53.2315 54.6381 53.5171 53.8514 53.5171C52.2065 53.5171 50.8477 52.1605 50.8477 50.5184C50.8477 48.8762 52.2065 47.5197 53.8514 47.5197C54.5665 47.5197 55.2102 47.7339 55.7108 48.1622C56.426 48.7334 57.4272 48.5906 57.9993 47.8767C58.5714 47.1627 58.4284 46.1631 57.7132 45.5919C56.6405 44.7351 55.2817 44.2354 53.8514 44.2354C50.4186 44.2354 47.6295 47.0199 47.6295 50.447C47.6295 53.8741 50.4186 56.6586 53.8514 56.6586C55.4963 56.6586 57.0696 56.016 58.2139 54.8737C58.8575 54.2311 58.8575 53.2315 58.2139 52.5889C57.5702 51.9463 56.569 52.0891 55.9253 52.6603Z" fill="white"/>
</svg>
