<svg width="30" height="30" viewBox="0 0 30 30" fill="none" xmlns="http://www.w3.org/2000/svg">
<path d="M20.3438 16.3125H16.0781V11.9531C16.0781 11.3906 15.6094 10.875 15 10.875C14.4375 10.875 13.9219 11.3437 13.9219 11.9531V16.3125H13.7812C13.2187 16.3125 12.7031 16.7812 12.7031 17.3906C12.7031 18 13.1719 18.4688 13.7812 18.4688H13.9219V18.6094C13.9219 19.1719 14.3906 19.6875 15 19.6875C15.5625 19.6875 16.0781 19.2188 16.0781 18.6094V18.4688H20.3438C20.9063 18.4688 21.4219 18 21.4219 17.3906C21.4219 16.7812 20.9063 16.3125 20.3438 16.3125Z" fill="#111928"/>
<path d="M27.8906 8.95312C27.8906 6.375 25.8281 4.3125 23.25 4.3125C22.0312 4.3125 20.9062 4.78125 20.0625 5.57812C18.7969 5.01562 17.4844 4.64062 16.0312 4.54687V2.95312H17.3437C17.9062 2.95312 18.4219 2.48437 18.4219 1.875C18.4219 1.26562 17.9531 0.796875 17.3437 0.796875H12.6094C12.0469 0.796875 11.5312 1.26562 11.5312 1.875C11.5312 2.48437 12 2.95312 12.6094 2.95312H13.9219V4.59375C12.5156 4.73438 11.1562 5.0625 9.89062 5.625C9.04688 4.82812 7.92187 4.35938 6.70312 4.35938C4.125 4.35938 2.0625 6.42187 2.0625 9C2.0625 10.2656 2.57812 11.4844 3.51562 12.3281C2.95312 13.7344 2.625 15.2812 2.625 16.875C2.625 23.6719 8.15625 29.2031 14.9531 29.2031C21.75 29.2031 27.2812 23.6719 27.2812 16.875C27.2812 15.2812 26.9531 13.7344 26.3906 12.3281C27.375 11.4375 27.8906 10.2187 27.8906 8.95312ZM23.25 6.42187C24.6562 6.42187 25.7812 7.54687 25.7812 8.95312C25.7812 9.42187 25.6406 9.89062 25.4062 10.2656C24.5156 8.85937 23.3906 7.6875 22.0312 6.75C22.4062 6.51562 22.8281 6.42187 23.25 6.42187ZM4.21875 8.95312C4.21875 7.54687 5.34375 6.42187 6.75 6.42187C7.17187 6.42187 7.59375 6.51562 7.96875 6.75C6.60938 7.6875 5.48437 8.90625 4.59375 10.2656C4.35938 9.84375 4.21875 9.42187 4.21875 8.95312ZM15 27.0937C9.375 27.0937 4.78125 22.5 4.78125 16.875C4.78125 11.25 9.375 6.65625 15 6.65625C20.625 6.65625 25.2187 11.25 25.2187 16.875C25.2187 22.5 20.625 27.0937 15 27.0937Z" fill="#111928"/>
</svg>
