<svg width="60" height="60" viewBox="0 0 60 60" fill="none" xmlns="http://www.w3.org/2000/svg">
<rect width="60" height="60" rx="30" fill="#FEEBEB"/>
<path d="M40.6875 33.4876L32.6625 20.5751C32.025 19.7126 31.05 19.2251 30 19.2251C28.9125 19.2251 27.9375 19.7126 27.3375 20.5751L19.3125 33.4876C18.5625 34.5001 18.45 35.8126 19.0125 36.9376C19.575 38.0626 20.7 38.7751 21.975 38.7751H38.025C39.3 38.7751 40.425 38.0626 40.9875 36.9376C41.55 35.8501 41.4375 34.5001 40.6875 33.4876ZM39.4875 36.1876C39.1875 36.7501 38.6625 37.0876 38.025 37.0876H21.975C21.3375 37.0876 20.8125 36.7501 20.5125 36.1876C20.25 35.6251 20.2875 34.9876 20.6625 34.5001L28.6875 21.5876C28.9875 21.1751 29.475 20.9126 30 20.9126C30.525 20.9126 31.0125 21.1376 31.3125 21.5876L39.3375 34.5001C39.7125 34.9876 39.75 35.6251 39.4875 36.1876Z" fill="#E10E0E"/>
<path d="M30.0002 26.2002C29.5502 26.2002 29.1377 26.5752 29.1377 27.0627V31.1502C29.1377 31.6002 29.5127 32.0127 30.0002 32.0127C30.4877 32.0127 30.8627 31.6377 30.8627 31.1502V27.0252C30.8627 26.5752 30.4502 26.2002 30.0002 26.2002Z" fill="#E10E0E"/>
<path d="M30.0002 33C29.5502 33 29.1377 33.375 29.1377 33.8625V34.05C29.1377 34.5 29.5127 34.9125 30.0002 34.9125C30.4877 34.9125 30.8627 34.5375 30.8627 34.05V33.825C30.8627 33.375 30.4502 33 30.0002 33Z" fill="#E10E0E"/>
</svg>
