<svg width="38" height="38" viewBox="0 0 38 38" fill="none" xmlns="http://www.w3.org/2000/svg">
<g id="Group">
<path id="Vector" d="M21 11.8125C20.4375 11.25 19.5625 11.25 19 11.8125C18.4375 12.375 18.4375 13.25 19 13.8125L22.75 17.625H11.9375C11.1875 17.625 10.5625 18.25 10.5625 19C10.5625 19.75 11.1875 20.375 11.9375 20.375H22.75L19 24.1875C18.4375 24.75 18.4375 25.625 19 26.1875C19.25 26.4375 19.625 26.5625 20 26.5625C20.375 26.5625 20.75 26.4375 21 26.125L27.125 19.9375C27.6875 19.375 27.6875 18.5 27.125 17.9375L21 11.8125Z" fill="#6EE7B7"/>
<path id="Vector_2" d="M19 0.125C8.5625 0.125 0.0625 8.5625 0.0625 19C0.0625 29.4375 8.5625 37.875 19 37.875C29.4375 37.875 37.9375 29.4375 37.9375 19C37.9375 8.5625 29.4375 0.125 19 0.125ZM19 35.125C10.125 35.125 2.875 27.875 2.875 19C2.875 10.125 10.125 2.875 19 2.875C27.875 2.875 35.125 10.125 35.125 19C35.125 27.875 27.875 35.125 19 35.125Z" fill="#6EE7B7"/>
</g>
</svg>
