<svg width="193" height="153" viewBox="0 0 193 153" fill="none" xmlns="http://www.w3.org/2000/svg">
<g clip-path="url(#clip0_151_2302)">
<rect width="193" height="153" fill="white"/>
<path d="M140.911 8.22394C139.03 3.26538 137.068 -1.90815 123.781 1.59114C116.647 3.47013 110.666 10.1087 105.777 19.9674C102.099 27.8079 98.9912 37.9466 96.512 50.1028C91.446 74.9424 89.3119 107.074 90.3096 138.315L88.0987 138.384L88.0695 137.441C87.3947 114.882 88.3421 91.9024 90.8412 71.5286C80.2082 60.6171 68.0887 52.0169 59.257 49.1604C38.3284 44.604 32.7994 56.6416 32.9366 67.3796C32.9616 69.3431 33.6566 70.9762 34.3567 72.6213C35.0806 74.3225 35.8101 76.0365 35.8101 78.1421C35.8101 79.5386 32.6471 82.4232 28.5356 86.1729C20.4524 93.5447 8.70293 104.26 10.1131 113.585C11.4164 122.203 19.6809 128.747 27.2881 132.265C28.0329 132.609 28.844 133.249 29.82 134.019C30.5141 134.567 31.2916 135.18 32.1879 135.8L32.2568 135.847C32.9609 136.326 34.1229 137.001 35.7429 137.874L36.2426 138.141C59.1605 150.348 85.7585 142.124 94.0467 139.089L94.5311 138.91L153.306 138.264L153.298 138.218C153.282 138.124 153.256 137.983 153.222 137.802C152.67 134.846 150.075 120.959 155.6 115.363C172.855 97.887 191.777 47.8738 166.051 26.9161C160.366 22.2847 154.725 19.4692 150.392 17.3069C147.761 15.9936 145.612 14.9212 144.23 13.8293C142.528 12.4847 141.727 10.3745 140.911 8.22394Z" fill="#6EE7B7"/>
<path fill-rule="evenodd" clip-rule="evenodd" d="M36.8235 64.201C35.5283 63.9787 37.8174 66.5148 37.8174 66.5148C37.8174 66.5148 38.1188 64.4233 36.8235 64.201Z" fill="white"/>
<path fill-rule="evenodd" clip-rule="evenodd" d="M56.197 138.458C56.197 138.458 42.2842 132.711 42.2842 124.709C42.2842 122.362 43.7714 122.587 46.7458 125.386C47.0693 125.69 47.5328 126.157 48.1361 126.787C48.5057 127.173 40.1558 117.162 44.3632 115.29C48.4645 113.464 49.4185 122.941 49.6328 122.81C49.8712 122.665 49.8015 119.798 50.7507 118.53C51.262 117.847 52.7658 117.701 53.9037 118.53C59.8813 122.884 56.197 138.458 56.197 138.458Z" fill="white"/>
<path fill-rule="evenodd" clip-rule="evenodd" d="M50.2173 79.7571C50.2173 79.7571 44.43 79.4637 43.6411 77.6468C42.8522 75.8299 47.1438 76.8624 47.1438 76.8624L50.2173 79.7571Z" fill="white"/>
<path fill-rule="evenodd" clip-rule="evenodd" d="M40.43 71.1436C39.1343 70.4277 39.8712 68.721 40.43 68.6499C42.0841 68.4397 43.3894 72.0589 43.5717 72.4213C43.8875 73.0488 41.0874 71.5068 40.43 71.1436Z" fill="white"/>
<path fill-rule="evenodd" clip-rule="evenodd" d="M53.7528 82.1148C53.7528 82.1148 50.5842 74.1386 53.5176 74.7671C56.4509 75.3956 55.6071 84.6682 55.6071 84.6682L53.7528 82.1148Z" fill="white"/>
<path fill-rule="evenodd" clip-rule="evenodd" d="M51.6253 76.3048C51.6667 77.5984 52.2266 79.5833 53.3017 82.2894C53.3163 82.3263 53.3356 82.3613 53.359 82.3935L55.2132 84.9468C55.4749 85.3072 56.0493 85.1525 56.0895 84.7109L56.123 84.3289C56.6442 78.1463 55.8918 74.7863 53.6202 74.2996C52.2986 74.0164 51.577 74.7968 51.6253 76.3048ZM53.4637 75.2459C54.8749 75.6033 55.5311 78.1889 55.2443 83.0417L55.2264 83.3234L54.1813 81.8841L53.9986 81.4159C53.0957 79.0733 52.6283 77.3514 52.5938 76.2746L52.5911 76.1242C52.5891 75.3084 52.8159 75.1062 53.4147 75.2345L53.4637 75.2459Z" fill="#00160A"/>
<path fill-rule="evenodd" clip-rule="evenodd" d="M42.5625 114.806C40.5214 115.714 40.6627 118.006 42.2208 121.128L42.3405 121.364C42.6255 121.918 42.9507 122.489 43.3105 123.076L43.4344 123.275L43.419 123.265C42.8363 122.883 42.3336 122.659 41.9011 122.593C40.7526 122.419 40.167 123.255 40.167 124.709C40.167 130.309 44.9568 135.043 54.4097 138.948C54.7163 139.074 55.0646 138.898 55.1402 138.579C57.6404 128.01 56.8532 121.17 52.6427 118.103C51.3507 117.162 49.483 117.22 48.7388 118.214L48.6742 118.304C48.3578 118.763 48.137 119.368 47.9734 120.119L47.9662 120.153L47.9451 120.07C47.8287 119.62 47.7057 119.196 47.5665 118.77C47.1051 117.361 46.5533 116.254 45.8611 115.514C44.95 114.539 43.8174 114.247 42.5625 114.806ZM47.1865 121.526L47.4223 122.624L47.4497 122.739C47.467 122.808 47.4828 122.863 47.4988 122.91C47.5204 122.974 47.5429 123.026 47.5786 123.082C47.6229 123.151 47.6779 123.212 47.7655 123.264C47.9359 123.365 48.1548 123.371 48.3353 123.261C48.5675 123.119 48.6243 122.998 48.6879 122.597L48.7176 122.396C48.7386 122.248 48.8155 121.618 48.8284 121.519C48.8801 121.121 48.9316 120.792 48.995 120.48C49.1437 119.745 49.3438 119.191 49.6027 118.845C49.9568 118.372 51.1511 118.334 52.0048 118.956L52.1166 119.04C55.6679 121.74 56.4367 127.857 54.3025 137.43L54.2366 137.722L54.018 137.629C45.4618 133.944 41.2414 129.626 41.2414 124.709C41.2414 123.816 41.3994 123.59 41.7381 123.642C42.3376 123.733 43.3848 124.442 44.7952 125.769L44.9755 125.942C45.1905 126.15 45.4546 126.416 45.7673 126.738L46.1837 127.17C46.1909 127.176 46.2016 127.186 46.2229 127.205L46.2297 127.221C46.2463 127.247 46.2991 127.257 46.6513 127.322L46.7741 127.279C46.9193 127.225 46.9424 127.189 47.0658 126.997L47.094 126.881C47.1111 126.805 47.1086 126.787 47.0995 126.72L47.0761 126.626C47.0709 126.608 47.067 126.598 47.0605 126.585L47.0551 126.574C47.0407 126.543 47.0324 126.527 47.0187 126.506L46.8726 126.312L46.5004 125.826C46.4364 125.741 46.3719 125.655 46.3006 125.56C45.6882 124.739 45.0944 123.891 44.5363 123.016C44.0135 122.197 43.5572 121.406 43.1846 120.66C41.8699 118.025 41.7651 116.324 43.004 115.773C44.4951 115.109 45.6398 116.334 46.5442 119.097C46.79 119.848 46.9846 120.604 47.1865 121.526Z" fill="#00160A"/>
<path fill-rule="evenodd" clip-rule="evenodd" d="M44.2283 72.7137L44.6696 73.1103C50.1416 78.0421 53.9514 81.9772 55.9822 84.7078C59.5268 89.4739 62.3834 94.4175 64.7907 99.6521C65.6462 101.512 66.4207 103.354 67.1839 105.31L67.3918 105.846C67.6297 106.464 67.8597 107.074 68.1104 107.75L69.1786 110.66C72.0678 118.47 71.1114 118.851 68.3609 111.254L67.2804 108.308C67.0542 107.696 66.847 107.143 66.6386 106.597L66.4819 106.188C65.6577 104.049 64.8284 102.059 63.9042 100.049C61.5234 94.8725 58.6998 89.986 55.1975 85.2767L55.0369 85.0633C52.9564 82.3277 49.0934 78.3734 43.5739 73.4253C43.3749 73.2469 43.36 72.9429 43.5407 72.7464C43.7215 72.5499 44.0293 72.5352 44.2283 72.7137ZM31.4205 61.8201L38.2349 67.563C38.8737 68.1041 39.3716 68.5279 39.6092 68.7348C39.8109 68.9103 39.8303 69.214 39.6525 69.4131C39.4748 69.6122 39.1672 69.6314 38.9655 69.4559L37.1921 67.9464C34.8371 65.9546 31.119 62.8306 30.7874 62.5503C30.5832 62.3777 30.5594 62.0743 30.7342 61.8727C30.909 61.671 31.2163 61.6475 31.4205 61.8201Z" fill="#00160A"/>
<path fill-rule="evenodd" clip-rule="evenodd" d="M44.0153 76.0759C43.1206 76.2762 42.8192 76.9679 43.1959 77.8354C43.8243 79.2826 46.1539 80.0302 50.1926 80.2349C50.6413 80.2577 50.877 79.7173 50.5518 79.4111L47.4783 76.5164C47.4169 76.4586 47.3411 76.4177 47.2586 76.3978C45.7596 76.0372 44.693 75.9241 44.0153 76.0759ZM46.9034 77.2973L48.9075 79.1843L48.787 79.1732L48.4844 79.1416C45.9044 78.8562 44.4369 78.2655 44.0865 77.4584L44.05 77.3719C43.9429 77.1064 43.9815 77.0645 44.2296 77.0089C44.6868 76.9065 45.5428 76.9872 46.7624 77.2648L46.9034 77.2973Z" fill="#00160A"/>
<path fill-rule="evenodd" clip-rule="evenodd" d="M41.1697 141.267C39.9496 141.96 40.4467 142.682 43.0778 143.835C45.9169 145.096 51.2008 147.529 60.2766 148.215C74.3338 149.277 87.1328 147.273 103.29 147.273C125.659 147.273 135.478 152.126 143.307 151.007C164.295 148.007 169.049 142.184 162.788 140.682C155.914 139.032 134.066 139.234 126.711 138.76L124.435 138.615L122.479 138.567C101.31 138.054 67.3761 138.567 60.7489 138.567C47.229 138.567 41.1697 141.267 41.1697 141.267Z" fill="white"/>
<path fill-rule="evenodd" clip-rule="evenodd" d="M103.291 147.273C125.66 147.273 135.479 152.294 143.308 151.174C164.295 148.174 169.05 142.184 162.789 140.682C155.915 139.032 130.944 138.496 124.795 138.628C124.795 138.628 153.062 143.785 151.55 145.493C147.046 150.578 135.831 144.433 115.463 144.612C111.267 144.649 103.291 147.273 103.291 147.273Z" fill="#E7EAEE"/>
<path fill-rule="evenodd" clip-rule="evenodd" d="M62.091 138.785C61.5462 138.788 61.1091 138.789 60.7492 138.789L60.1321 138.791C51.3427 138.831 44.9319 139.744 40.8727 141.552L40.8093 141.584C39.8612 142.123 39.4979 142.917 40.0937 143.732C40.4789 144.259 41.2856 144.757 42.6469 145.363L43.8042 145.873C45.2483 146.505 46.1047 146.847 47.3906 147.294L47.5301 147.342C51.2393 148.621 55.3552 149.495 60.2217 149.862C63.6796 150.124 67.2036 150.213 71.0664 150.16L72.4187 150.137C74.9586 150.085 77.1222 149.997 81.0751 149.787L87.9078 149.414C94.4187 149.066 98.3907 148.927 103.08 148.923L103.291 148.923C111.683 148.923 118.54 149.554 126.144 150.783L126.804 150.892C127.95 151.088 134.252 152.184 135.992 152.431L136.052 152.44C139.089 152.862 141.335 152.946 143.411 152.649L143.992 152.565C153.418 151.174 160.23 149.102 163.671 146.81C167.108 144.52 166.797 141.897 163.073 140.952L162.959 140.924C159.867 140.182 153.997 139.77 144.877 139.5L143.006 139.448C142.461 139.434 141.898 139.419 141.306 139.405L133.366 139.224C130.308 139.149 128.433 139.085 127.014 138.999L124.481 138.839L122.498 138.79L120.482 138.744C114.635 138.624 107.653 138.566 99.6598 138.562L97.2834 138.562C91.7136 138.565 85.9488 138.592 79.5126 138.639L62.091 138.785ZM101.519 139.991C109.496 140.004 116.413 140.074 122.133 140.209L124.417 140.265L127.013 140.429C128.442 140.513 130.313 140.577 133.323 140.65L140.971 140.824C141.873 140.846 142.706 140.867 143.505 140.889L145.378 140.943C154.073 141.21 159.724 141.617 162.618 142.311L162.791 142.354C165.191 142.976 165.27 144.023 162.862 145.627C159.569 147.821 146.053 153.698 136.501 151.695L136.062 151.633C134.043 151.337 127.277 149.839 126.878 149.773L125.898 149.615C118.574 148.45 111.888 147.84 103.83 147.814L102.658 147.814C97.8392 147.826 93.6887 147.985 86.6365 148.371L81.7427 148.64C77.0093 148.894 74.7525 148.985 71.8076 149.038L71.5705 149.042C56.6358 149.615 47.5301 146.18 47.5301 146.18C46.3383 145.759 43.2546 144.702 43.2546 144.702L43.025 144.598C35.8304 142.186 51.5384 140.257 60.1449 140.218L62.8278 140.208L78.4134 140.075C85.6691 140.019 92.0573 139.989 98.2364 139.988L101.519 139.991Z" fill="#00160A"/>
<path fill-rule="evenodd" clip-rule="evenodd" d="M134.709 128.485C134.709 128.485 134.671 130.6 135.33 131.58C135.99 132.559 137.829 135.282 139.54 135.998C140.067 136.219 142.079 136.247 143.288 136.945C145.717 138.346 146.258 140.869 143.288 141.404C137.393 142.465 135.33 139.397 135.33 139.397C135.33 139.397 132.902 135.998 130.468 133.744C128.034 131.49 126.095 130.811 126.095 130.811" fill="white"/>
<path d="M155.053 35.4666C154.232 35.4057 153.75 36.0216 153.75 36.7671C153.75 39.3479 158.02 42.8773 160.803 42.8773C161.619 42.8773 162.286 42.3013 162.049 41.4207C161.96 41.0889 161.754 40.7945 161.417 40.4316L161.343 40.3527C160.964 39.9555 160.573 39.6008 159.694 38.8545L158.349 37.716C158.019 37.4339 157.494 36.984 157.335 36.85L157.144 36.6898C156.776 36.3836 156.492 36.1607 156.238 35.9834C155.789 35.6702 155.441 35.4954 155.053 35.4666Z" fill="white"/>
<path fill-rule="evenodd" clip-rule="evenodd" d="M127.772 86.0671C127.772 86.0671 126.155 81.5108 121.999 80.2769C120.679 79.8849 126.455 88.4916 121.357 91.7022C119.766 92.7045 116.936 93.2245 113.455 93.7138C97.9345 95.895 93.2552 90.1772 83.6747 87.3848C79.8331 86.2652 61.1474 81.3123 58.3222 106.542C56.5538 122.334 69.9478 127.228 81.9512 129.738C105.998 134.764 142.844 132.783 154.336 116.215C168.034 96.4658 146.98 79.2672 144.014 77.4491C143.296 77.0089 145.356 82.6529 145.585 85.5075C145.813 88.3622 144.014 89.4002 144.014 89.4002C144.014 89.4002 143.305 86.3779 137.036 85.8594C130.767 85.3409 127.772 86.0671 127.772 86.0671Z" fill="white"/>
<path fill-rule="evenodd" clip-rule="evenodd" d="M35.5329 65.0421C35.7526 65.5535 36.2637 66.2309 37.0946 67.1515C37.6433 67.7594 38.6612 67.4558 38.7773 66.6498C39.0427 64.8082 38.4875 63.5156 36.9901 63.2586C35.818 63.0575 35.0611 63.9436 35.5329 65.0421ZM37.818 66.515L37.6694 66.349C36.2712 64.7739 35.9894 64.058 36.8241 64.2012C37.6876 64.3494 38.0189 65.1206 37.818 66.515Z" fill="#00160A"/>
<path fill-rule="evenodd" clip-rule="evenodd" d="M40.368 68.1756C39.8233 68.2448 39.3794 68.8761 39.257 69.5734C39.1164 70.3754 39.4185 71.1331 40.1933 71.5612L40.7275 71.8535C41.2428 72.1323 41.7055 72.3716 42.1558 72.5852L42.3647 72.6826C42.7001 72.8357 42.9715 72.9428 43.1779 72.9988C43.3892 73.0562 43.5495 73.0726 43.7205 73.0109C44.0861 72.8789 44.1502 72.538 44.0239 72.2478L43.9839 72.1597C43.9334 72.0428 43.8087 71.7492 43.7369 71.5853L43.7213 71.55C43.5257 71.1084 43.3264 70.7011 43.1068 70.3127C42.2938 68.8745 41.4195 68.042 40.368 68.1756ZM42.3606 70.96C42.4922 71.2039 42.6178 71.4588 42.7412 71.7283L42.7819 71.8188L42.6626 71.7639L42.5755 71.723C41.9988 71.4493 41.3892 71.1256 40.6665 70.7263C40.2761 70.5106 40.1372 70.1621 40.2118 69.7367C40.2443 69.5516 40.3178 69.3728 40.4099 69.2418C40.438 69.2018 40.4659 69.1693 40.4908 69.1457L40.5179 69.1222L40.4917 69.1245C40.996 69.0604 41.631 69.6652 42.2607 70.779L42.3606 70.96Z" fill="#00160A"/>
<path fill-rule="evenodd" clip-rule="evenodd" d="M48.6534 76.4259C48.5673 76.0556 43.7408 67.3712 47.1299 67.644C50.5189 67.9168 49.7119 77.7594 49.594 77.7594C49.4551 77.7594 48.7153 76.6921 48.6534 76.4259Z" fill="white"/>
<path fill-rule="evenodd" clip-rule="evenodd" d="M45.4404 68.9375C45.4406 69.7683 45.7213 70.8683 46.2249 72.2047C46.3761 72.6059 46.5455 73.0228 46.7316 73.4554L46.8454 73.7167C47.2926 74.7344 48.1891 76.5664 48.1813 76.5329C48.2295 76.7399 48.4309 77.0851 48.6964 77.4644L48.7938 77.6025C49.1186 78.0579 49.2803 78.2226 49.5542 78.2367L49.6697 78.2396C49.9985 78.2566 49.9982 78.3682 50.0741 77.8961L50.1016 77.7235C50.1129 77.6527 50.1247 77.5603 50.1363 77.4505L50.1432 77.3825C50.1737 77.0755 50.2009 76.6752 50.2195 76.2371C50.2674 75.1057 50.2538 73.8946 50.16 72.7648L50.1344 72.4781C49.8315 69.3104 48.9512 67.3106 47.1694 67.1672C46.0306 67.0755 45.4403 67.779 45.4404 68.9375ZM47.0906 68.1207C48.2261 68.2121 48.9557 69.9691 49.1943 72.843C49.2845 73.9303 49.2977 75.1027 49.2513 76.1971L49.2353 76.5225L49.218 76.4934C49.1713 76.4142 49.139 76.3541 49.1287 76.3279L49.1257 76.3188C49.1049 76.2292 48.1327 74.2425 47.7342 73.3359C47.5093 72.8241 47.308 72.3355 47.133 71.8711C46.6666 70.6334 46.4095 69.6259 46.4094 68.9374C46.4093 68.3103 46.572 68.0948 47.0394 68.1174L47.0906 68.1207Z" fill="#00160A"/>
<path fill-rule="evenodd" clip-rule="evenodd" d="M61.9726 94.0677C61.9726 94.0677 63.034 92.6114 63.6307 91.8883C64.2274 91.1651 64.8671 90.5598 64.8671 90.5598C64.8671 90.5598 50.4551 89.1437 45.4628 85.4749C38.944 80.6841 33.0964 72.7381 27.2061 71.0574C20.1644 69.0482 17.5583 73.7084 15.5272 74.0883C9.33992 75.2458 -1.99204 78.5397 3.18963 88.4884C4.78936 91.5599 9.97157 92.9881 13.6224 91.2758C17.6975 89.3644 22.716 84.6826 27.9941 84.6826C34.0976 84.6826 35.1603 89.6194 42.9082 92.2369C47.6637 93.8433 61.9726 94.0677 61.9726 94.0677Z" fill="white"/>
<path fill-rule="evenodd" clip-rule="evenodd" d="M79.1338 129.272C79.1338 129.272 82.6523 133.065 84.1101 135.504C85.568 137.944 85.0572 139.267 87.0811 140.394C90.1217 142.088 93.2557 141.661 94.6502 140.76C96.0447 139.859 94.7364 137.554 91.8133 137.554C91.0943 137.554 90.2486 135.924 89.8391 134.845C89.4296 133.767 89.617 131.113 89.617 131.113L79.1338 129.272Z" fill="white"/>
<path fill-rule="evenodd" clip-rule="evenodd" d="M144.668 78.4038C144.668 78.4038 167.592 106.166 135.354 122.462C112.807 133.859 75.7637 127.705 75.7637 127.705C75.7637 127.705 116.09 138.409 142.447 125.504C159.264 117.27 162.59 103.274 154.567 89.0233C152.468 85.2942 144.668 78.4038 144.668 78.4038Z" fill="#E7EAEE"/>
<path fill-rule="evenodd" clip-rule="evenodd" d="M143.321 77.0196C143.61 76.6419 144.06 76.637 144.396 76.843C145.479 77.5063 147.437 79.1117 149.32 80.9948C151.934 83.6086 154.268 86.5702 156.057 89.7625C160.957 98.5026 160.52 107.653 154.301 116.619C148.804 124.543 138.051 129.326 122.955 131.469C109.752 133.343 94.4676 133.083 81.8024 130.436L81.1673 130.301C73.9191 128.739 68.5756 126.754 64.5329 123.687C59.2304 119.664 56.757 114.034 57.6047 106.464C58.888 95.0041 63.4766 88.6353 70.3938 86.4042C72.9652 85.5748 75.7194 85.3709 78.5619 85.6478C80.5108 85.8377 82.1476 86.1955 83.8803 86.7006L84.1882 86.7915C86.0706 87.3551 87.6725 87.9774 90.1432 89.0582L91.9697 89.866C95.7544 91.541 97.9446 92.3355 100.78 92.8999C104.347 93.6102 108.276 93.6937 113.042 93.0504L113.749 92.9512C117.639 92.3913 119.727 91.8829 120.969 91.1007C122.423 90.185 122.942 88.701 122.734 86.6461C122.64 85.7112 122.405 84.7252 122.034 83.5756L121.931 83.2657C121.771 82.796 121.303 81.4764 121.217 81.1895C121.11 80.8343 121.061 80.587 121.079 80.3569C121.123 79.7797 121.635 79.4234 122.209 79.5937C125.24 80.4937 127.417 83.1078 128.754 87.3454C128.873 87.7217 128.66 88.1218 128.279 88.239C127.898 88.3563 127.492 88.1462 127.374 87.7699C126.356 84.544 124.87 82.4457 122.923 81.4207L122.795 81.3554L123.322 82.8707L123.336 82.9141C124.672 88.5399 123.68 92.9512 114.693 94.3143C114.198 94.3894 104.26 95.2337 100.134 94.2255C93.8832 92.6982 85.0118 86.9988 79.6934 86.7915C74.375 86.5842 73.2057 86.9988 70.8427 87.761C64.5026 89.8059 59.2292 96.4298 58.165 107.369C57.6031 113.146 60.7635 118.999 65.9457 122.605C79.1339 131.781 109.717 132.218 122.75 130.368C137.484 128.277 148.52 123.338 153.74 115.812C159.626 107.326 159.444 98.7502 154.793 90.4537C153.072 87.3843 150.818 84.5241 148.291 81.9976C147.14 80.8469 145.964 79.8067 145.008 79.0481L144.848 78.9217L144.987 79.4655L145.435 81.1637L145.598 81.7998C145.624 81.9002 145.648 81.9983 145.672 82.0949L145.758 82.444C146.06 83.6986 146.244 84.6723 146.306 85.4514C146.479 87.6048 145.847 89.1699 144.38 90.0166C144.035 90.2154 143.592 90.1007 143.391 89.7604C143.19 89.4202 143.306 88.9831 143.65 88.7842C144.582 88.2468 144.997 87.2168 144.865 85.564C144.81 84.8731 144.636 83.9579 144.349 82.766L144.268 82.434C144.233 82.2921 144.196 82.1467 144.158 81.9951L143.528 79.5918C143.434 79.2279 143.363 78.9418 143.307 78.6927L143.29 78.619C143.194 78.1861 143.144 77.8762 143.141 77.6428C143.138 77.404 143.173 77.2137 143.321 77.0196Z" fill="#00160A"/>
<path fill-rule="evenodd" clip-rule="evenodd" d="M127.714 85.2805L128.231 85.1946C131.64 84.6393 134.392 84.4385 136.495 84.5958C138.714 84.7617 141.066 85.3539 143.551 86.3693C143.879 86.5033 144.035 86.8743 143.899 87.198C143.763 87.5218 143.387 87.6756 143.059 87.5416C140.694 86.5752 138.474 86.0161 136.398 85.8609C134.312 85.7049 131.486 85.9268 127.932 86.5308C127.583 86.5903 127.25 86.3586 127.19 86.0133C127.13 85.668 127.365 85.34 127.714 85.2805Z" fill="#00160A"/>
<path fill-rule="evenodd" clip-rule="evenodd" d="M131.824 82.4344C133.363 82.1223 134.769 82.2837 136.023 82.9232C137.224 83.5354 138.264 84.3056 139.141 85.233C139.325 85.4269 139.314 85.7311 139.118 85.9123C138.921 86.0935 138.613 86.0831 138.43 85.8892C137.629 85.0434 136.679 84.3396 135.576 83.7772C134.527 83.2421 133.348 83.1068 132.02 83.3759C131.757 83.4293 131.5 83.2619 131.446 83.0018C131.392 82.7418 131.561 82.4878 131.824 82.4344Z" fill="#00160A"/>
<path fill-rule="evenodd" clip-rule="evenodd" d="M134.936 79.9176C135.074 79.6898 135.373 79.6156 135.604 79.7518C136.838 80.4807 137.86 81.2962 138.668 82.1995C139.483 83.1115 140.152 84.2772 140.679 85.694C140.771 85.9432 140.642 86.2193 140.389 86.3108C140.137 86.4022 139.857 86.2743 139.765 86.0251C139.278 84.7146 138.668 83.6523 137.938 82.8356C137.2 82.0101 136.256 81.2568 135.104 80.5768C134.873 80.4405 134.798 80.1454 134.936 79.9176Z" fill="#00160A"/>
<path fill-rule="evenodd" clip-rule="evenodd" d="M120.831 91.3383C121.035 91.0514 121.436 90.9817 121.726 91.1827C122.017 91.3837 115.814 100.106 115.814 101.798C115.814 103.633 116.727 104.862 119.159 106.799L120.189 107.608L120.489 107.845C121.997 109.048 122.875 109.891 123.621 110.963C124.664 112.46 125.155 114.131 125.03 116.114C124.876 118.559 124.129 120.249 122.648 122.199L122.514 122.373C122.348 122.585 121.615 123.509 121.414 123.78C120.698 124.746 120.361 125.473 120.299 126.327C120.029 130.089 121.822 134.631 125.715 139.938C125.923 140.221 125.859 140.618 125.572 140.823C125.284 141.029 124.883 140.966 124.675 140.682C120.62 135.156 118.722 130.347 119.018 126.237C119.096 125.147 119.498 124.244 120.281 123.161L120.377 123.031C120.608 122.72 121.448 121.661 121.519 121.569C122.93 119.742 124.969 117.07 123.336 111.983C122.514 109.422 114.709 107.608 114.452 102.157C114.392 100.873 116.56 97.3579 120.831 91.3383Z" fill="#00160A"/>
<path d="M123.195 117.711L122.298 117.72C116.99 117.788 113.762 118.052 112.764 118.474L112.728 118.49C111.261 119.154 110.108 120.054 109.226 121.133C108.541 121.972 108.057 122.87 107.741 123.767C107.647 124.034 107.574 124.284 107.519 124.511L107.482 124.673L109.017 126.615C109.033 126.635 109.047 126.655 109.06 126.675L109.075 126.696L109.123 126.766C109.455 127.241 109.831 127.705 110.315 128.246L110.539 128.491C110.936 128.92 112.203 130.268 112.633 130.753C113.553 131.79 114.328 132.789 115.071 133.935C116.202 135.682 117.201 137.7 118.097 140.143L118.161 140.322L118.225 140.505C118.304 140.731 118.38 140.964 118.463 141.226L118.842 142.451C119.4 144.256 119.791 145.086 120.409 145.588L120.513 145.67C121.324 146.294 122.08 146.448 124.181 146.513L124.795 146.53C127.587 146.606 129.044 144.416 127.446 142.825C126.945 142.326 125.292 141.939 122.589 141.777C122.234 141.756 122.567 140.855 122.589 140.505C122.61 140.155 122.915 139.889 123.269 139.91C123.582 139.929 123.883 139.951 124.171 139.975C120.591 134.851 118.843 130.485 119.121 126.615C119.199 125.525 119.08 125.098 119.864 124.016L120.013 123.814C120.299 123.438 121.035 122.51 121.101 122.424C121.704 121.643 122.125 121.003 122.461 120.305L122.528 120.164L122.55 120.114L122.587 120.033C122.765 119.632 122.952 118.942 123.144 117.975L123.195 117.711Z" fill="white"/>
<path fill-rule="evenodd" clip-rule="evenodd" d="M108.104 123.937C108.611 125.395 109.494 126.285 110.723 127.662L110.896 127.854C111.203 128.187 112.596 129.667 113.051 130.181C113.971 131.218 114.747 132.217 115.489 133.363C116.621 135.11 117.619 137.128 118.515 139.571C118.558 139.689 118.601 139.809 118.644 139.933L118.761 140.28C118.787 140.359 118.813 140.441 118.841 140.525L118.994 141.012C119.072 141.265 119.231 141.784 119.26 141.879L119.345 142.149C119.859 143.769 120.24 144.54 120.827 145.016L120.931 145.098C121.708 145.695 122.433 145.862 124.338 145.933L125.213 145.958C128.006 146.034 129.462 143.844 127.864 142.253C127.363 141.754 125.71 141.367 123.007 141.205C122.652 141.184 122.383 140.883 122.404 140.533C122.426 140.184 122.73 139.917 123.085 139.939L123.422 139.96C126.245 140.153 128 140.586 128.777 141.36C131.278 143.85 129.051 147.261 125.292 147.229L124.84 147.218C122.156 147.146 121.194 146.956 120.011 145.996C119.168 145.311 118.709 144.39 118.12 142.535L117.739 141.299L117.616 140.911C117.564 140.748 117.514 140.597 117.465 140.452L117.428 140.343C117.387 140.226 117.347 140.113 117.307 140.003C116.442 137.647 115.486 135.713 114.406 134.046C113.756 133.042 113.078 132.156 112.285 131.245L112.084 131.017C111.62 130.494 110.109 128.889 109.899 128.657C108.529 127.145 107.71 125.923 107.126 124.313L107.067 124.146C105.93 120.872 104.471 119.755 102.565 120.453C102.233 120.575 98.509 122.338 102.115 119.971C105.722 117.603 108.104 123.937 108.104 123.937Z" fill="#00160A"/>
<path fill-rule="evenodd" clip-rule="evenodd" d="M130.525 101.4C129.825 101.4 128.82 99.4142 128.82 98.4441C128.82 97.474 131.334 97.8022 131.334 97.8022C131.334 97.8022 133.974 98.1516 133.61 99.1274C133.246 100.103 130.914 101.4 130.525 101.4Z" fill="#FFB61D"/>
<ellipse cx="126.386" cy="94.2572" rx="1.38653" ry="2.5575" fill="#00160A"/>
<ellipse cx="139.646" cy="94.8358" rx="1.51955" ry="2.51743" fill="#00160A"/>
<path fill-rule="evenodd" clip-rule="evenodd" d="M138.655 99.0622C139.813 98.5713 141.094 98.4785 142.484 98.7783C143.844 99.0715 147.941 101.603 147.798 101.828C147.655 102.052 143.506 99.9825 142.276 99.7174C141.077 99.4589 140.003 99.5368 139.039 99.9455C138.792 100.05 138.506 99.9374 138.4 99.6935C138.294 99.4496 138.408 99.167 138.655 99.0622Z" fill="#00160A"/>
<path fill-rule="evenodd" clip-rule="evenodd" d="M139.392 100.723C140.607 100.787 140.923 100.513 142.588 101.58C144.252 102.647 145.496 105.159 145.268 105.3C145.041 105.441 143.712 103.201 142.188 102.073C140.664 100.944 138.866 101.443 138.88 101.178C138.893 100.928 139.099 100.732 139.347 100.723L139.392 100.723Z" fill="#00160A"/>
<path fill-rule="evenodd" clip-rule="evenodd" d="M130.955 102.441C130.617 104.513 130.702 105.831 130.828 107.303C130.955 108.774 132.146 110.893 132.266 111.778C132.385 112.663 130.012 109.012 129.869 107.464C129.725 105.916 128.708 101.708 130.485 101.904C130.485 101.904 130.992 102.211 130.955 102.441Z" fill="#00160A"/>
<path fill-rule="evenodd" clip-rule="evenodd" d="M122.112 99.3154C123.191 99.3154 123.628 99.3417 124.679 99.5458C124.943 99.597 125.115 99.8497 125.063 100.11C125.011 100.371 124.755 100.54 124.491 100.489C124.117 100.416 123.4 100.107 122.211 100.12C120.586 100.137 119.171 101.027 119.1 100.88C118.985 100.64 121.033 99.3154 122.112 99.3154Z" fill="#00160A"/>
<path fill-rule="evenodd" clip-rule="evenodd" d="M123.877 97.2518C124.138 97.3127 124.301 97.5716 124.239 97.8299C124.177 98.0883 123.915 98.2483 123.653 98.1874C121.316 97.6431 119.441 97.6578 118.118 97.6068C116.817 97.5565 113.899 97.7577 113.813 97.5061C113.728 97.2544 121.484 96.6946 123.877 97.2518Z" fill="#00160A"/>
<path fill-rule="evenodd" clip-rule="evenodd" d="M134.72 127.85C135.075 127.856 135.357 128.145 135.351 128.496C135.328 129.789 135.511 130.702 135.865 131.228C137.35 133.432 138.61 134.919 139.791 135.414C139.823 135.428 139.9 135.447 140.02 135.47L140.197 135.501C140.33 135.523 140.89 135.607 140.989 135.622C141.358 135.68 141.662 135.735 141.959 135.801C142.615 135.948 143.161 136.136 143.612 136.397C144.97 137.18 145.866 138.325 145.953 139.451C146.054 140.752 145.096 141.723 143.404 142.028C139.247 142.776 136.338 142.043 134.805 139.763C133.21 137.53 131.617 135.678 130.028 134.207C128.465 132.759 127.077 131.828 125.88 131.409C125.546 131.292 125.371 130.929 125.489 130.599C125.608 130.269 125.975 130.096 126.31 130.213C127.698 130.699 129.226 131.724 130.908 133.281C132.564 134.815 134.213 136.732 135.866 139.046C137.073 140.842 139.469 141.446 143.173 140.78C144.272 140.582 144.717 140.13 144.672 139.547C144.621 138.891 143.989 138.083 142.964 137.492C142.644 137.307 142.214 137.159 141.675 137.039C141.443 136.987 141.201 136.942 140.914 136.895L139.985 136.753L139.806 136.721C139.583 136.68 139.425 136.639 139.289 136.582C138.406 136.212 137.499 135.416 136.548 134.294C135.922 133.554 135.441 132.888 134.796 131.931C134.27 131.15 134.039 130.001 134.066 128.473C134.073 128.123 134.365 127.844 134.72 127.85Z" fill="#00160A"/>
<path fill-rule="evenodd" clip-rule="evenodd" d="M139.909 139.554C139.973 139.344 140.197 139.225 140.409 139.287C141.071 139.482 141.539 139.698 141.825 139.954C142.095 140.197 142.363 140.57 142.637 141.076C142.742 141.27 142.668 141.51 142.472 141.613C142.277 141.716 142.034 141.644 141.929 141.45C141.694 141.017 141.476 140.713 141.284 140.541C141.108 140.382 140.736 140.211 140.179 140.047C139.967 139.984 139.846 139.763 139.909 139.554Z" fill="#00160A"/>
<path fill-rule="evenodd" clip-rule="evenodd" d="M142.005 138.714C142.075 138.507 142.302 138.394 142.513 138.463C143.079 138.649 143.5 138.862 143.78 139.113C144.058 139.361 144.324 139.764 144.593 140.324C144.689 140.522 144.603 140.759 144.403 140.852C144.203 140.946 143.963 140.862 143.868 140.664C143.639 140.189 143.425 139.866 143.24 139.699C143.057 139.535 142.729 139.37 142.259 139.216C142.049 139.147 141.935 138.922 142.005 138.714Z" fill="#00160A"/>
<path fill-rule="evenodd" clip-rule="evenodd" d="M124.814 144.178C124.884 143.97 125.111 143.858 125.321 143.927C125.888 144.113 126.309 144.326 126.589 144.576C126.866 144.825 127.132 145.227 127.402 145.788C127.497 145.986 127.412 146.222 127.211 146.316C127.011 146.41 126.772 146.326 126.677 146.128C126.448 145.653 126.234 145.329 126.049 145.163C125.866 144.999 125.538 144.834 125.068 144.68C124.857 144.61 124.744 144.386 124.814 144.178Z" fill="#00160A"/>
<path fill-rule="evenodd" clip-rule="evenodd" d="M125.983 142.832C126.053 142.625 126.28 142.512 126.49 142.581C127.057 142.768 127.478 142.98 127.758 143.231C128.035 143.48 128.301 143.882 128.571 144.442C128.666 144.64 128.581 144.877 128.38 144.971C128.18 145.064 127.941 144.98 127.845 144.782C127.617 144.307 127.403 143.984 127.218 143.818C127.035 143.654 126.707 143.488 126.237 143.334C126.026 143.265 125.913 143.04 125.983 142.832Z" fill="#00160A"/>
<path fill-rule="evenodd" clip-rule="evenodd" d="M78.6997 128.804C78.9613 128.568 83.3962 133.59 84.3474 135.182C84.6539 135.694 84.8959 136.188 85.111 136.717C85.1773 136.879 85.2391 137.04 85.3059 137.222L85.5581 137.925C85.9322 138.952 86.5537 139.372 87.3968 139.842C89.8702 141.22 92.791 141.203 94.2984 140.229C95.1342 139.689 94.0053 138.188 91.8132 138.188C90.7887 138.188 89.9073 136.832 89.2374 135.068C88.9236 134.241 88.8451 132.922 88.976 131.068C89.0006 130.719 89.3076 130.455 89.6616 130.48C90.0156 130.504 90.2825 130.807 90.2578 131.157C90.1389 132.842 90.2084 134.011 90.4406 134.622L90.5082 134.795C90.9595 135.912 91.6234 136.919 91.8132 136.919C93.3578 136.919 94.6642 137.507 95.3666 138.441C96.1098 139.429 96.0118 140.638 95.0019 141.291C93.081 142.532 89.6459 142.551 86.7653 140.947C85.6522 140.326 85.1644 139.684 84.7077 138.47L84.4625 137.788C84.3805 137.561 84.3103 137.375 84.2347 137.19C84.0428 136.718 83.8287 136.281 83.5567 135.826C82.6116 134.245 80.978 132.199 78.66 129.701C78.4203 129.442 78.4381 129.041 78.6997 128.804Z" fill="#00160A"/>
<path fill-rule="evenodd" clip-rule="evenodd" d="M90.597 139.554C90.6604 139.344 90.8842 139.225 91.0967 139.287C91.7582 139.482 92.2264 139.698 92.512 139.954C92.7829 140.197 93.0504 140.57 93.3247 141.076C93.4292 141.27 93.3555 141.51 93.1599 141.613C92.9644 141.716 92.7211 141.644 92.6165 141.45C92.3818 141.017 92.1636 140.713 91.9719 140.541C91.795 140.382 91.423 140.211 90.8668 140.047C90.6543 139.984 90.5335 139.763 90.597 139.554Z" fill="#00160A"/>
<path fill-rule="evenodd" clip-rule="evenodd" d="M92.1076 138.907C92.1776 138.699 92.4049 138.587 92.6154 138.656C93.1819 138.842 93.603 139.054 93.8827 139.305C94.1601 139.554 94.4264 139.956 94.696 140.517C94.7911 140.714 94.7058 140.951 94.5054 141.045C94.3051 141.139 94.0656 141.054 93.9705 140.857C93.7419 140.381 93.5278 140.058 93.3427 139.892C93.1598 139.728 92.8315 139.562 92.3618 139.408C92.1514 139.339 92.0375 139.114 92.1076 138.907Z" fill="#00160A"/>
<path fill-rule="evenodd" clip-rule="evenodd" d="M18.043 71.8094L17.9072 71.9019C17.4773 72.1985 16.6494 72.7949 16.4671 72.9215L16.4484 72.9344C15.976 73.2557 15.6569 73.4184 15.4076 73.465C11.0024 74.2891 7.19799 75.2114 4.59374 77.1582C0.952295 79.8803 -1.01474 84.6404 1.48031 89.4308C3.25577 92.8397 9.96777 93.6922 13.8981 91.8488C14.5706 91.5334 15.2868 91.1385 16.151 90.6165L16.5102 90.3975C16.6345 90.321 16.7624 90.2418 16.8985 90.1569L17.8395 89.564L18.8683 88.9135L19.2449 88.6783C23.0277 86.3317 25.431 85.3169 27.9941 85.3169C30.1127 85.3169 31.6037 85.8912 33.4767 87.248L33.6179 87.3513C33.9431 87.5912 36.0538 89.2534 36.7665 89.7658C38.6131 91.0933 40.4365 92.0723 42.7002 92.837L42.8993 92.9024C46.2122 93.9609 52.5492 94.5544 61.9624 94.702C62.1726 94.7053 62.3712 94.6068 62.4941 94.4383L62.8609 93.938C63.3881 93.2241 63.8113 92.6738 64.1288 92.2889C64.5103 91.8266 64.9045 91.403 65.3116 91.0178C65.7077 90.643 65.4766 89.9822 64.9307 89.9286L64.3644 89.8717C55.1766 88.928 48.9917 87.2774 45.8464 84.966L45.6171 84.7961C43.9398 83.5439 42.3378 82.1306 39.8958 79.8174L36.7401 76.8243C35.4925 75.6505 35.054 75.2689 34.1799 74.5359L34.043 74.4212C31.9995 72.7101 30.2264 71.5371 28.5066 70.8373C28.1291 70.6837 27.7554 70.5538 27.3845 70.448C23.5547 69.3552 20.8054 69.9624 18.043 71.8094ZM27.0277 71.6668C27.3525 71.7595 27.682 71.874 28.0169 72.0103C29.5409 72.6304 31.1541 73.6851 33.024 75.2324L33.7557 75.8465C34.5612 76.5303 35.1189 77.0421 36.9752 78.8033L39.1765 80.8941C41.6696 83.2506 43.3025 84.678 45.0792 85.9837L45.1835 86.0595C48.4112 88.3745 54.2744 90.0015 62.8035 90.9786L63.5011 91.0563L63.4915 91.0671C63.4109 91.1584 63.3308 91.2511 63.2514 91.3452L63.0761 91.5564L62.942 91.7223C62.6875 92.0403 62.3847 92.4349 62.0332 92.9066L61.6475 93.4278L60.8668 93.4135C52.0126 93.236 46.0794 92.6377 43.1162 91.6366C41.0646 90.9436 39.4034 90.0673 37.7244 88.8836L37.5228 88.7401C36.8388 88.2484 34.7364 86.5927 34.3869 86.3349C32.2423 84.753 30.4761 84.0482 27.9941 84.0482C25.1169 84.0482 22.5446 85.1331 18.5678 87.6L17.9566 87.9827L16.646 88.8122C16.257 89.0574 15.9496 89.2486 15.6507 89.4308L15.3188 89.6314C14.5626 90.0837 13.9311 90.4287 13.3467 90.7028C10.0149 92.2655 5.20271 90.9663 3.76101 88.1983C1.55589 83.9645 2.33179 80.853 5.48289 78.4974C7.89012 76.6979 11.421 75.5021 15.6468 74.7116C16.0891 74.6288 16.5154 74.4198 17.0715 74.0503L17.1774 73.9791C17.3422 73.867 18.3421 73.1457 18.7237 72.8867L18.7635 72.8599C21.2307 71.2103 23.5966 70.6878 27.0277 71.6668Z" fill="#00160A"/>
<path fill-rule="evenodd" clip-rule="evenodd" d="M180.899 88.9078L180.838 89.0531L180.717 89.3534C179.136 93.3117 177.741 99.3765 176.523 107.562L176.452 108.043L176.448 108.02C175.976 105.275 175.381 103.142 174.656 101.614C173.396 98.9599 171.602 97.9578 169.481 98.9103C162.6 102.001 163.01 114.57 170.298 136.657C170.395 136.951 170.672 137.15 170.985 137.15H178.897C179.109 137.15 179.311 137.057 179.448 136.897C189.328 125.392 193.752 117.658 192.67 113.408L192.635 113.273C191.651 109.618 189.19 108.834 185.68 110.799L185.555 110.869L185.73 110.472C191.819 96.5448 192.936 87.9696 188.822 84.6275C185.802 82.1739 183.045 83.7972 180.899 88.9078ZM188.021 85.1786C191.643 88.1208 190.356 97.7554 183.485 112.688C183.171 113.371 191.268 108.02 191.268 113.756L191.294 113.865C192.074 117.396 188.05 124.524 179.18 134.997L178.561 135.722L170.985 136.255C170.985 136.255 160.772 102.958 170.08 100.209C172.759 99.4185 174.735 103.259 175.715 113.648C175.795 114.499 177.047 114.517 177.152 113.669L177.238 112.985C178.646 101.873 180.317 94.0206 182.234 89.4545L182.344 89.197C184.135 85.0566 185.998 83.5347 188.021 85.1786Z" fill="#00160A"/>
<path d="M187.904 85.7294C191.526 88.6717 190.058 97.6805 183.188 112.613C182.874 113.296 183.702 113.934 184.296 113.467L184.538 113.279C188.441 110.279 190.442 110.508 191.269 113.756L191.295 113.865C192.074 117.395 188.051 124.524 179.18 134.996L178.562 135.722H171.511L171.258 134.944C164.611 114.375 164.349 102.784 170.081 100.209C172.725 99.0216 174.735 103.259 175.716 113.648C175.796 114.499 177.047 114.517 177.153 113.669L177.238 112.984C178.647 101.873 180.317 94.0203 182.235 89.4542L182.345 89.1968C184.136 85.0563 185.88 84.0855 187.904 85.7294Z" fill="white"/>
<ellipse cx="169.069" cy="109.309" rx="2.56996" ry="2.53743" fill="#E7EAEE"/>
<ellipse cx="185.131" cy="92.8153" rx="2.56996" ry="2.53743" fill="#E7EAEE"/>
<ellipse cx="186.417" cy="117.238" rx="2.56996" ry="2.53743" fill="#E7EAEE"/>
<path fill-rule="evenodd" clip-rule="evenodd" d="M50.2022 138.912C45.6658 138.983 30.0657 140.124 29.7962 139.553C29.4514 138.822 46.4633 137.86 50.1715 137.802L51.333 137.787C54.7046 137.751 50.2022 138.912 50.2022 138.912ZM116.931 137.428C117.331 137.417 117.663 137.728 117.673 138.122C117.684 138.516 117.369 138.844 116.97 138.854L110.513 139.012C106.494 139.103 101.836 139.197 94.9535 139.331C94.5543 139.339 94.2244 139.026 94.2166 138.632C94.2087 138.238 94.5259 137.912 94.925 137.904L107.113 137.659C110.813 137.58 113.786 137.51 116.931 137.428ZM133.585 137.095C133.984 137.089 134.313 137.403 134.319 137.797C134.325 138.191 134.007 138.516 133.608 138.522L131.914 138.543L126.732 138.578C125.647 138.589 124.797 138.604 123.796 138.628C123.397 138.637 123.066 138.326 123.056 137.932C123.046 137.538 123.362 137.211 123.761 137.201L125.035 137.174C125.87 137.159 126.718 137.149 127.845 137.141L132.154 137.113C132.655 137.108 133.109 137.102 133.585 137.095ZM180.429 135.722C180.429 135.722 181.726 135.501 191.201 136.201C191.599 136.231 191.897 136.573 191.868 136.966C191.838 137.359 187.153 137.161 180.748 137.15L178.986 137.152C174.283 137.173 169.914 137.299 162.663 137.593L153.511 137.975C149.605 138.133 147.275 138.21 144.442 138.276C144.043 138.285 143.711 137.973 143.702 137.579C143.693 137.185 144.009 136.858 144.408 136.849L146.683 136.79C149.39 136.713 152.171 136.606 157.102 136.398L162.331 136.178C170.507 135.845 175.054 135.722 180.429 135.722Z" fill="#00160A"/>
<path d="M158.527 32.993L158.693 32.6923C159.989 30.3745 161.118 29.2238 162.434 29.5992C162.541 29.6297 162.646 29.6712 162.748 29.7236C163.555 30.1366 163.749 30.9045 163.522 31.9524L163.508 32.017L163.546 31.9631C163.928 31.4269 164.293 31.0128 164.671 30.7055L164.752 30.6413C165.592 29.9954 166.484 29.9353 167.291 30.6083C168.581 31.6828 168.434 33.4852 167.382 34.5945L167.323 34.6544C167.177 34.8004 167.089 35.1165 166.991 35.8603L166.906 36.512C166.804 37.264 166.735 37.5938 166.574 38.1032C166.271 39.0653 165.774 39.8679 164.999 40.5234C164.025 41.3473 162.382 41.2324 160.067 40.2932C159.819 40.1923 159.7 39.9114 159.802 39.6659C159.904 39.4204 156.555 36.5044 156.454 36.6323L156.421 36.6695C156.235 36.8609 155.927 36.867 155.733 36.6831L155.263 36.2355C154.979 35.9657 155.121 35.4928 155.507 35.418C156.214 35.2809 156.763 35.1297 157.149 34.9682C157.473 34.8326 157.65 34.7028 157.692 34.6187C157.692 34.6187 158.395 33.236 158.527 32.993Z" fill="white"/>
<path fill-rule="evenodd" clip-rule="evenodd" d="M155.053 35.4661C154.232 35.4053 153.75 36.0211 153.75 36.7666C153.75 39.3474 158.02 42.8768 160.803 42.8768C161.619 42.8768 162.286 42.3008 162.049 41.4203C161.96 41.0884 161.754 40.794 161.417 40.4311L161.343 40.3523C160.964 39.955 160.573 39.6003 159.694 38.854L158.349 37.7155C158.019 37.4334 157.494 36.9835 157.335 36.8495L157.144 36.6893C156.776 36.3832 156.492 36.1602 156.238 35.983C155.789 35.6697 155.441 35.4949 155.053 35.4661ZM154.724 36.7666C154.724 35.7576 156.188 37.1526 157.95 38.6455L159.121 39.6344C160.554 40.8545 162.303 42.1236 161.417 42.2167C158.611 42.5117 154.724 38.8371 154.724 36.7666Z" fill="#00160A"/>
<path fill-rule="evenodd" clip-rule="evenodd" d="M155.278 28.703C155.479 28.5269 156.484 27.8342 155.965 28.7438C155.446 29.6534 152.445 30.8072 155.446 35.4073C155.56 35.5822 155.421 35.9333 155.171 36.0303C154.92 36.1273 154.638 36.0057 154.54 35.7586C153.781 33.851 153.43 32.4701 153.497 31.5723C153.569 30.621 154.173 29.6694 155.278 28.703Z" fill="#00160A"/>
<path fill-rule="evenodd" clip-rule="evenodd" d="M151.529 30.3046C151.582 30.0443 152.102 29.4003 152.102 29.9279C152.102 30.4554 151.338 31.7936 152.413 33.3014C153.489 34.8093 155.34 35.832 155.182 36.0465C155.024 36.2611 154.719 36.3083 154.502 36.152C152.944 35.0318 151.999 34.1553 151.642 33.4683C151.27 32.7516 151.245 31.7027 151.529 30.3046Z" fill="#00160A"/>
<path fill-rule="evenodd" clip-rule="evenodd" d="M158.527 32.993L158.693 32.6923C159.989 30.3745 161.118 29.2238 162.434 29.5992C162.541 29.6297 162.646 29.6712 162.748 29.7236C163.555 30.1366 163.749 30.9045 163.522 31.9524L163.508 32.017L163.546 31.9631C163.928 31.4269 164.293 31.0128 164.671 30.7055L164.752 30.6413C165.592 29.9954 166.484 29.9353 167.291 30.6083C168.581 31.6828 168.434 33.4852 167.382 34.5945L167.323 34.6544C167.177 34.8004 167.089 35.1165 166.991 35.8603L166.906 36.512C166.804 37.264 166.735 37.5938 166.574 38.1032C166.271 39.0653 165.774 39.8679 164.999 40.5234C164.025 41.3473 162.382 41.2324 160.067 40.2932C159.819 40.1923 159.7 39.9114 159.802 39.6659C159.904 39.4204 163.409 41.4312 164.752 39.868C166.095 38.3048 166.24 35.0715 166.627 34.0915L166.721 33.9206C167.463 33.1793 167.488 32.0303 166.663 31.3428C166.238 30.988 165.852 31.014 165.35 31.3999C164.892 31.7514 164.416 32.3549 163.866 33.2331L163.705 33.495C163.435 33.9454 162.893 34.8794 162.821 34.9981L162.722 35.1598C162.389 35.6978 161.964 36.0347 161.901 36.0491C161.838 36.0636 161.748 36.0136 161.726 35.5586C161.719 35.4089 161.757 35.2583 161.838 35.0535L161.87 34.974C161.967 34.7394 162.505 33.6363 162.542 33.5572C162.705 33.2098 162.837 32.907 162.945 32.6214C163.383 31.4702 162.732 30.7978 162.3 30.577C162.254 30.5534 162.209 30.5354 162.164 30.5227C161.496 30.3321 160.565 31.312 159.479 33.2754L159.244 33.7099C159.07 34.0376 158.899 34.3746 158.565 35.0442C158.321 35.5311 157.671 35.8801 156.588 36.1616L156.529 36.1765L156.534 36.1904C156.582 36.3382 156.555 36.5044 156.454 36.6323L156.421 36.6695C156.235 36.8609 155.927 36.867 155.733 36.6831L155.263 36.2355C154.979 35.9657 155.121 35.4928 155.507 35.418C156.214 35.2809 156.763 35.1297 157.149 34.9682C157.473 34.8326 157.65 34.7028 157.692 34.6187L158.147 33.715C158.286 33.4415 158.395 33.236 158.527 32.993Z" fill="#00160A"/>
<ellipse cx="164.914" cy="34.4631" rx="1.106" ry="0.895275" fill="#FFB61D"/>
<ellipse cx="161.754" cy="31.9671" rx="1.106" ry="0.895275" fill="#FFB61D"/>
<path fill-rule="evenodd" clip-rule="evenodd" d="M154.955 38.2467C154.8 38.1115 154.607 37.8677 154.437 37.6039L154.218 37.6999L153.959 37.8094C153.907 37.8329 153.874 37.8513 153.863 37.8662C153.834 37.9211 153.765 37.9419 153.709 37.9128C153.654 37.8838 153.632 37.8158 153.662 37.7611C153.682 37.709 153.828 37.5458 154.098 37.3861C154.147 37.3572 154.201 37.3303 154.259 37.3041C154.159 37.1201 154.081 36.9424 154.044 36.7999C153.989 36.5898 154.033 36.4409 154.106 36.3886C154.178 36.3368 154.357 36.3272 154.631 36.5513C154.681 36.5891 154.689 36.6598 154.651 36.7089C154.613 36.7579 154.541 36.7669 154.491 36.7291C154.439 36.6912 154.387 36.6697 154.344 36.6542L154.365 36.7347C154.373 36.7634 154.383 36.7934 154.397 36.8226C154.446 36.9284 154.508 37.0493 154.578 37.1734C154.792 37.0936 155.035 37.0213 155.298 36.9865C155.426 36.9695 155.557 36.9662 155.692 36.9673C155.77 36.9622 155.838 37.0206 155.843 37.0978C155.848 37.1748 155.789 37.2415 155.711 37.2466C155.395 37.2767 155.102 37.3555 154.844 37.4442L154.76 37.4742C154.899 37.6897 155.049 37.8854 155.177 37.9958C155.247 38.0565 155.254 38.162 155.193 38.2312C155.13 38.3006 155.024 38.3075 154.955 38.2467Z" fill="#FFB61D"/>
<path fill-rule="evenodd" clip-rule="evenodd" d="M80.6451 124.084C79.846 127.802 75.9892 128.856 76.0309 131.849C76.0525 133.397 76.4854 134.681 76.8409 135.669C77.5637 137.677 79.447 139.745 80.3191 141.66C81.0645 143.296 84.8046 142.189 85.1033 144.733C85.2661 146.118 82.6202 146.916 81.9002 146.97C80.8666 147.047 79.5564 146.697 77.9698 145.919C76.0401 144.993 74.4911 144.264 73.3698 142.93C73.1511 142.67 73.0137 141.935 72.7719 140.781C72.5072 139.517 71.6032 136.305 69.2412 131.118C68.9039 130.378 67.6126 127.346 66.1765 124.246C64.9914 121.687 69.8892 116.561 72.0609 116.74C77.3955 117.181 81.2096 121.458 80.6451 124.084Z" fill="white"/>
<path fill-rule="evenodd" clip-rule="evenodd" d="M76.9043 145.974C75.5763 145.193 74.4841 144.293 73.6276 143.275C73.409 143.015 73.2482 142.057 73.0064 140.902C72.8796 140.296 68.2692 129.376 66.7484 125.265C66.4647 124.498 67.1535 125.035 67.3153 125.265C68.1977 126.521 73.6276 134.801 76.222 142.473" fill="#E7EAEE"/>
<path fill-rule="evenodd" clip-rule="evenodd" d="M77.9397 145.647L78.1371 145.744C79.6294 146.476 80.834 146.798 81.733 146.731C82.6989 146.658 84.2754 145.798 84.3451 145.066C84.457 143.891 84.1346 143.558 82.5421 142.964C82.0803 142.791 80.8315 142.829 78.9069 143.117C78.5561 143.169 78.2286 142.931 78.1755 142.585C78.1224 142.238 78.3637 141.915 78.7146 141.862L79.031 141.816C80.9997 141.538 82.2896 141.513 82.9962 141.777L83.2058 141.857C85.117 142.603 85.7968 143.375 85.6244 145.185C85.4783 146.719 83.3458 147.882 81.8301 147.996C80.6997 148.08 79.3374 147.728 77.7318 146.96L77.5705 146.882C75.5622 145.919 73.9633 144.735 72.7802 143.328C72.6244 143.142 72.5247 142.895 72.4224 142.517L72.3987 142.427C72.3608 142.28 72.3229 142.117 72.2788 141.912L72.0241 140.678L71.9849 140.498C71.5658 138.645 70.3521 135.226 68.5132 131.163L68.2329 130.552C68.06 130.18 65.5937 126.234 65.4097 125.309C64.7214 121.852 67.5358 120.139 67.5358 120.139C67.5358 120.139 66.0761 123.18 66.4875 124.675C66.8073 125.837 69.5062 129.836 70.4663 132.902C71.4599 136.075 72.4998 139.46 74.0189 142.228C75.1657 144.318 75.9865 145.265 77.9397 145.647Z" fill="#00160A"/>
<path fill-rule="evenodd" clip-rule="evenodd" d="M81.056 144.937C81.1194 144.727 81.3431 144.608 81.5556 144.67C82.2172 144.866 82.6854 145.081 82.971 145.337C83.2418 145.58 83.5094 145.954 83.7836 146.46C83.8882 146.653 83.8145 146.893 83.6189 146.996C83.4234 147.1 83.18 147.027 83.0754 146.834C82.8408 146.4 82.6226 146.096 82.4309 145.924C82.254 145.766 81.882 145.594 81.3258 145.43C81.1133 145.368 80.9925 145.147 81.056 144.937Z" fill="#00160A"/>
<path fill-rule="evenodd" clip-rule="evenodd" d="M82.1769 143.713C82.2469 143.506 82.4743 143.393 82.6847 143.462C83.2512 143.648 83.6723 143.861 83.9521 144.112C84.2295 144.36 84.4958 144.763 84.7653 145.323C84.8604 145.521 84.7751 145.758 84.5748 145.851C84.3744 145.945 84.1349 145.861 84.0398 145.663C83.8112 145.188 83.5971 144.865 83.412 144.698C83.2292 144.534 82.9009 144.369 82.4311 144.215C82.2207 144.146 82.1069 143.921 82.1769 143.713Z" fill="#00160A"/>
<path fill-rule="evenodd" clip-rule="evenodd" d="M78.1563 118.161C79.5689 118.722 82.3474 121.832 81.9176 123.579C81.4732 125.385 80.8213 126.107 79.7841 127.304L79.6756 127.428C79.3592 127.783 78.0528 129.094 78.001 129.149L77.877 129.284C76.713 130.581 76.2372 132.015 77.1842 134.658C77.8779 136.595 79.0191 138.796 80.5941 140.895C80.8019 141.171 81.3189 141.985 81.0384 142.19C80.7579 142.395 80.0942 141.732 79.8864 141.455C78.2404 139.262 77.0469 137.135 76.3086 135.074C75.1932 131.961 75.4623 130.678 77.0017 129.002L77.0997 128.898C77.2646 128.728 78.3966 127.592 78.6962 127.261L78.7263 127.228C79.6936 126.142 80.3311 124.991 80.7403 123.328C81.0231 122.178 79.8344 120.137 77.3222 118.481C75.6546 117.382 76.7436 117.6 78.1563 118.161Z" fill="#00160A"/>
</g>
<defs>
<clipPath id="clip0_151_2302">
<rect width="193" height="153" fill="white"/>
</clipPath>
</defs>
</svg>
