<svg width="38" height="38" viewBox="0 0 38 38" fill="none" xmlns="http://www.w3.org/2000/svg">
<g id="Group">
<path id="Vector" d="M19 0.125C8.5625 0.125 0.125 8.5625 0.125 19C0.125 29.4375 8.5625 37.9375 19 37.9375C29.4375 37.9375 37.9375 29.4375 37.9375 19C37.9375 8.5625 29.4375 0.125 19 0.125ZM19 35.125C10.125 35.125 2.9375 27.875 2.9375 19C2.9375 10.125 10.125 2.9375 19 2.9375C27.875 2.9375 35.125 10.1875 35.125 19.0625C35.125 27.875 27.875 35.125 19 35.125Z" fill="#6EE7B7"/>
<path id="Vector_2" d="M24.3753 13.1878L16.9378 20.4378L13.5628 17.1253C13.0003 16.5628 12.1253 16.6253 11.5628 17.1253C11.0003 17.6878 11.0628 18.5628 11.5628 19.1253L15.5628 23.0003C15.9378 23.3753 16.4378 23.5628 16.9378 23.5628C17.4378 23.5628 17.9378 23.3753 18.3128 23.0003L26.3753 15.2503C26.9378 14.6878 26.9378 13.8128 26.3753 13.2503C25.8128 12.6878 24.9378 12.6878 24.3753 13.1878Z" fill="#6EE7B7"/>
</g>
</svg>
