<svg width="16" height="16" viewBox="0 0 16 16" fill="none" xmlns="http://www.w3.org/2000/svg">
<path d="M2.4142 5.03575L2.41418 5.03577L2.417 5.03852L7.767 10.2635L8.00101 10.4921L8.23393 10.2624L13.5839 4.98741L13.5839 4.98741L13.5856 4.98575C13.6804 4.89093 13.8194 4.89093 13.9142 4.98575C14.0087 5.0803 14.009 5.2187 13.915 5.31351C13.9148 5.31379 13.9145 5.31407 13.9142 5.31435L8.16628 10.9623L8.16627 10.9623L8.1642 10.9643C8.06789 11.0607 8.02303 11.0667 7.9999 11.0667C7.94098 11.0667 7.88993 11.0523 7.82015 10.9991L2.08477 5.36351C1.99078 5.26871 1.99106 5.1303 2.0856 5.03575C2.18043 4.94093 2.31937 4.94093 2.4142 5.03575Z" fill="#637381" stroke="#637381" stroke-width="0.666667"/>
</svg>
