<svg width="24" height="24" viewBox="0 0 24 24" fill="none" xmlns="http://www.w3.org/2000/svg">
<path d="M21.0002 3.59998H3.0002C1.7252 3.59998 0.637695 4.64998 0.637695 5.96248V18.1125C0.637695 19.3875 1.6877 20.475 3.0002 20.475H21.0002C22.2752 20.475 23.3627 19.425 23.3627 18.1125V5.92498C23.3627 4.64998 22.2752 3.59998 21.0002 3.59998ZM21.0002 5.28748C21.0377 5.28748 21.0752 5.28748 21.1127 5.28748L12.0002 11.1375L2.8877 5.28748C2.9252 5.28748 2.9627 5.28748 3.0002 5.28748H21.0002ZM21.0002 18.7125H3.0002C2.6252 18.7125 2.3252 18.4125 2.3252 18.0375V6.93748L11.1002 12.5625C11.3627 12.75 11.6627 12.825 11.9627 12.825C12.2627 12.825 12.5627 12.75 12.8252 12.5625L21.6002 6.93748V18.075C21.6752 18.45 21.3752 18.7125 21.0002 18.7125Z" fill="white"/>
</svg>
