<svg width="24" height="24" viewBox="0 0 24 24" fill="none" xmlns="http://www.w3.org/2000/svg">
<path d="M21.0002 3.6001H3.0002C1.7252 3.6001 0.637695 4.6501 0.637695 5.9626V18.1126C0.637695 19.3876 1.6877 20.4751 3.0002 20.4751H21.0002C22.2752 20.4751 23.3627 19.4251 23.3627 18.1126V5.9251C23.3627 4.6501 22.2752 3.6001 21.0002 3.6001ZM21.0002 5.2876C21.0377 5.2876 21.0752 5.2876 21.1127 5.2876L12.0002 11.1376L2.8877 5.2876C2.9252 5.2876 2.9627 5.2876 3.0002 5.2876H21.0002ZM21.0002 18.7126H3.0002C2.6252 18.7126 2.3252 18.4126 2.3252 18.0376V6.9376L11.1002 12.5626C11.3627 12.7501 11.6627 12.8251 11.9627 12.8251C12.2627 12.8251 12.5627 12.7501 12.8252 12.5626L21.6002 6.9376V18.0751C21.6752 18.4501 21.3752 18.7126 21.0002 18.7126Z" fill="#475569"/>
</svg>
