<svg width="30" height="30" viewBox="0 0 30 30" fill="none" xmlns="http://www.w3.org/2000/svg">
<path d="M26.5781 4.07812H17.4844L16.6875 2.53125C16.2188 1.6875 15.375 1.17188 14.3906 1.17188H7.35938C5.95312 1.17188 4.78125 2.34375 4.78125 3.75V6H3.42188C2.01563 6 0.84375 7.17187 0.84375 8.57812V26.1562C0.84375 27.5625 2.01563 28.7344 3.42188 28.7344H22.6406C24.0469 28.7344 25.2188 27.5625 25.2188 26.1562V23.9062H26.5781C27.9844 23.9062 29.1563 22.7344 29.1563 21.3281V6.70312C29.2031 5.25 28.0313 4.07812 26.5781 4.07812ZM23.1094 26.2031C23.1094 26.4844 22.875 26.6719 22.6406 26.6719H3.42188C3.14063 26.6719 2.95313 26.4375 2.95313 26.2031V8.625C2.95313 8.34375 3.1875 8.15625 3.42188 8.15625H10.4531C10.6406 8.15625 10.7813 8.25 10.875 8.39062L12 10.5C12.1875 10.8281 12.5625 11.0625 12.9375 11.0625H22.6875C22.9688 11.0625 23.1563 11.2969 23.1563 11.5312V26.2031H23.1094ZM27.0938 21.375C27.0938 21.6562 26.8594 21.8438 26.625 21.8438H25.2656V11.5312C25.2656 10.125 24.0938 8.95312 22.6875 8.95312H13.5L12.7031 7.40625C12.2344 6.5625 11.3906 6.04688 10.4063 6.04688H6.89062V3.79688C6.89062 3.51563 7.125 3.32812 7.35938 3.32812H14.3906C14.5781 3.32812 14.7188 3.42188 14.8125 3.5625L15.9375 5.625C16.125 5.95312 16.5 6.1875 16.875 6.1875H26.625C26.9063 6.1875 27.0938 6.42188 27.0938 6.65625V21.375Z" fill="#111928"/>
</svg>
