<svg width="24" height="24" viewBox="0 0 24 24" fill="none" xmlns="http://www.w3.org/2000/svg">
<g id="flag">
<path id="Vector" d="M19.0127 4.3127C18.5627 3.8252 17.9627 3.5252 17.2877 3.5252H6.1127V1.5002C6.1127 1.0502 5.7377 0.637695 5.2502 0.637695C4.7627 0.637695 4.3877 1.0127 4.3877 1.5002V22.5002C4.3877 22.9502 4.7627 23.3627 5.2502 23.3627C5.7377 23.3627 6.1127 22.9877 6.1127 22.5002V13.8002H16.5002C17.6627 13.8002 18.6377 12.9377 18.7877 11.8127L19.5377 6.11269C19.6127 5.43769 19.4252 4.8002 19.0127 4.3127ZM17.1377 11.5877C17.1002 11.8877 16.8377 12.1127 16.5377 12.1127H6.1127V5.21269H17.2502C17.4752 5.21269 17.6252 5.32519 17.7002 5.40019C17.7752 5.47519 17.8877 5.6252 17.8502 5.88769L17.1377 11.5877Z" fill="#111928"/>
</g>
</svg>
