<svg width="30" height="30" viewBox="0 0 30 30" fill="none" xmlns="http://www.w3.org/2000/svg">
<g id="friends">
<path id="Vector" d="M26.625 14.5312C25.6406 13.3594 24.4219 12.5156 23.1094 12C24.4219 11.1094 25.2656 9.60937 25.2656 7.875C25.2656 5.10937 23.0156 2.90625 20.2969 2.90625C17.5781 2.90625 15.2812 5.15625 15.2812 7.92188C15.2812 9.60938 16.125 11.1562 17.4375 12.0469C16.125 12.5625 14.9063 13.4063 13.9219 14.5781C13.875 14.625 13.875 14.6719 13.8281 14.6719C13.4062 14.4375 12.9844 14.25 12.5625 14.0625C13.875 13.1719 14.7188 11.6719 14.7188 9.9375C14.7188 7.17188 12.4688 4.96875 9.75 4.96875C7.03125 4.96875 4.78125 7.21875 4.78125 9.9375C4.78125 11.625 5.625 13.1719 6.9375 14.0625C5.625 14.5781 4.40625 15.4219 3.42188 16.5938C1.82812 18.5156 0.890625 21.1406 0.84375 24C0.84375 24.4219 1.07813 24.7969 1.40625 24.9375C2.39062 25.4531 5.90625 27.0469 9.75 27.0469C13.875 27.0469 17.2031 25.4062 18.1406 24.9375C18.1875 24.9375 18.1875 24.8906 18.2344 24.8906C18.9375 24.9844 19.6406 25.0312 20.2969 25.0312C24.375 25.0312 27.75 23.3906 28.6406 22.9219C28.9688 22.7344 29.2031 22.3594 29.2031 21.9844C29.1094 19.125 28.2188 16.4531 26.625 14.5312ZM20.25 5.01562C21.8438 5.01562 23.1094 6.32812 23.1094 7.875C23.1094 9.42187 21.8438 10.7812 20.25 10.7812C18.6562 10.7812 17.3906 9.46875 17.3906 7.92188C17.3906 6.375 18.6562 5.01562 20.25 5.01562ZM9.75 7.03125C11.3438 7.03125 12.6094 8.34375 12.6094 9.89063C12.6094 11.4375 11.2969 12.75 9.75 12.75C8.20312 12.75 6.89062 11.4375 6.89062 9.89063C6.89062 8.34375 8.15625 7.03125 9.75 7.03125ZM9.75 24.9844C6.9375 24.9844 4.21875 23.9531 2.95312 23.3906C3.09375 21.2812 3.84375 19.3594 5.01562 17.9531C6.28125 16.4531 7.96875 15.6562 9.75 15.6562C11.5781 15.6562 13.2188 16.4531 14.4844 17.9531C15.6562 19.3594 16.4062 21.2812 16.5469 23.3906C15.375 23.9531 12.75 24.9844 9.75 24.9844ZM20.25 22.9688C19.7344 22.9688 19.1719 22.9219 18.5625 22.8281C18.3281 20.4375 17.4375 18.2344 16.0781 16.5938C15.8906 16.3594 15.7031 16.1719 15.4688 15.9375C15.4688 15.9375 15.4688 15.9375 15.5156 15.8906C16.7812 14.3906 18.4219 13.5938 20.25 13.5938C22.0781 13.5938 23.7188 14.3906 24.9844 15.8906C26.1562 17.2969 26.8594 19.2188 27.0469 21.3281C25.7812 21.9375 23.25 22.9688 20.25 22.9688Z" fill="#111928"/>
</g>
</svg>
