<svg width="275" height="278" viewBox="0 0 275 278" fill="none" xmlns="http://www.w3.org/2000/svg">
<path fill-rule="evenodd" clip-rule="evenodd" d="M236.279 42.5097C267.855 72.4901 276.676 117.201 274.357 160.671C272.136 202.325 259.727 246.627 224.225 268.518C191.2 288.882 151.591 268.961 113.93 259.591C75.8167 250.109 30.2457 249.7 10.9925 215.466C-9.45983 179.1 5.04914 134.95 22.534 97.0813C41.2473 56.5523 65.5915 14.5742 108.849 3.53009C154.121 -8.02849 202.386 10.3302 236.279 42.5097Z" fill="#60a5fa"/>
<g clip-path="url(#clip0_151_800)">
<path d="M165.488 27.0359C167.079 26.689 168.708 27.303 170.207 27.9414C198.885 40.1606 221.261 66.2632 228.954 96.4719C236.647 126.681 229.481 160.306 210.14 184.754C190.8 209.201 159.725 223.913 128.557 223.378C127.923 226.998 127.29 230.619 126.656 234.239C126.655 231.171 126.606 227.923 124.997 225.312C123.387 222.7 119.615 221.17 117.15 222.996C113.781 227.018 116.385 234.308 121.539 235.287C120.531 237.652 116.643 236.915 115.336 234.702C114.03 232.488 114.326 229.732 114.125 227.169C113.923 224.606 112.741 221.66 110.22 221.157C102.736 219.664 95.3961 217.453 88.3331 214.564C83.762 212.695 78.4934 209.022 79.5646 204.201C80.3559 200.64 84.5694 198.733 88.1857 199.212C91.8019 199.691 94.9215 201.897 97.8771 204.035C99.4187 198.707 100.96 193.38 102.502 188.052C97.6497 188.277 96.2876 181.168 92.1991 178.545C73.4933 166.544 61.0235 145.332 59.6349 123.151C58.2464 100.971 67.9734 78.3691 85.0364 64.1292C102.099 49.8894 126.077 44.3633 147.651 49.6981C150.211 46.5491 154.996 45.4587 158.668 47.1877C162.1 45.4361 161.925 40.5774 161.494 36.7478C161.063 32.9182 161.723 27.8566 165.488 27.0359ZM104.948 205.735C103.535 204.17 104.922 205.095 104.922 205.095L104.948 205.911V206.284C104.948 206.284 101.523 204.958 99.8777 204.421C128.015 213.926 160.758 208.397 184.214 190.18C207.67 171.964 221.132 141.608 218.888 111.994C216.644 82.3801 198.762 54.3992 172.829 39.9248C172.211 39.5795 171.518 39.2302 170.826 39.3804C169.937 39.5734 169.432 40.4899 169.041 41.3115C167.739 44.0496 166.438 46.7877 165.136 49.5258C168.202 51.3264 169.841 55.2595 168.96 58.7047C186.509 69.8272 198.729 88.9893 201.412 109.592C204.095 130.195 197.19 151.848 183.076 167.094C168.961 182.34 147.903 190.891 127.155 189.801C122.293 189.545 117.055 188.872 112.865 191.353C108.021 194.221 106.28 200.265 104.948 205.735Z" fill="white"/>
<path d="M97.8478 77.9401C97.4532 77.9455 97.2824 78.4344 97.2191 78.824C96.9783 80.3066 96.7376 81.7892 96.4968 83.2719C98.3502 83.234 100.439 83.0904 101.645 81.6824C99.9848 81.4027 98.7435 79.6082 99.0675 77.9559C99.6581 78.8681 100.456 79.645 101.384 80.2108C101.846 80.4925 102.38 80.768 102.56 81.2781C102.859 82.1216 102.019 82.9015 101.287 83.4151C100.554 83.9287 99.7344 84.7474 100.08 85.5727C99.4027 84.7912 98.4105 84.2907 97.3793 84.2102C96.789 84.1641 96.1364 84.2329 95.6643 83.8756C94.9034 83.2997 95.1631 82.1018 95.5836 81.2451C96.004 80.3884 96.516 79.3726 96.0442 78.5431C95.691 77.9223 94.8644 77.6158 94.6784 76.9262C94.4071 75.9208 95.6523 75.2195 96.6612 74.9619C97.3633 74.7826 98.1024 74.6236 98.8057 74.7982C99.509 74.9727 100.157 75.583 100.131 76.3071C99.7964 77.245 98.8435 77.9265 97.8478 77.9401V77.9401ZM99.4937 76.0204C98.4862 75.4501 97.1428 75.5409 96.2211 76.2416C95.9185 76.4716 95.6425 76.8743 95.826 77.2072C97.1392 77.2909 98.4785 76.8575 99.4937 76.0204Z" fill="black"/>
<path d="M170.665 130.871C170.222 130.695 169.829 130.396 169.541 130.016C170.612 129.548 171.489 128.655 171.939 127.577C172.225 126.891 173.249 126.879 173.865 127.296C174.48 127.712 174.864 128.392 175.424 128.881C175.984 129.369 176.917 129.614 177.43 129.077C178.029 128.45 179.191 128.955 179.495 129.767C179.799 130.578 179.532 131.479 179.263 132.303C179.108 132.782 178.938 133.283 178.565 133.622C178.193 133.96 177.55 134.057 177.206 133.69C175.854 132.249 173.156 132.483 172.072 134.135C170.989 133.482 170.396 132.106 170.665 130.871ZM172.621 128.647C171.653 129.625 171.325 131.184 171.816 132.469C171.929 132.764 172.308 133.08 172.504 132.83C173.403 131.686 175.042 131.186 176.427 131.632C176.689 131.716 176.922 131.37 176.847 131.105C176.772 130.84 176.524 130.668 176.294 130.518C175.304 129.875 174.315 129.232 173.326 128.589C173.211 128.515 173.084 128.437 172.947 128.45C172.818 128.463 172.712 128.555 172.621 128.647V128.647ZM177.948 133.31C178.352 132.382 178.626 131.398 178.759 130.395C178.788 130.173 178.679 129.84 178.472 129.925C177.248 130.492 176.953 132.4 177.948 133.31V133.31Z" fill="black"/>
<path d="M139.854 131.428C138.016 130.015 135.687 128.882 134.921 126.694C133.617 122.972 129.482 121.028 127.436 117.658C125.708 114.812 125.655 111.249 126.172 107.96C127.465 99.7198 132.559 91.7068 140.36 88.7571C144.083 87.3495 148.147 87.1534 152.127 87.1942C155.552 87.2294 159.092 87.4584 162.144 89.0148C165.195 90.5712 167.645 93.7745 167.324 97.1847C167.194 98.5571 166.637 99.8734 166.611 101.252C166.541 105.028 170.24 107.631 173.511 109.519C176.665 111.341 179.819 113.162 182.973 114.983C184.601 115.923 184.823 118.141 184.858 120.02C184.951 125.159 185.045 130.298 185.139 135.437C185.157 136.464 185.174 137.507 184.909 138.5C184.623 139.571 184.023 140.527 183.432 141.465C177.536 150.811 171.139 160.619 161.191 165.431C159.013 166.484 156.717 167.268 154.427 168.048C152.288 168.777 150.148 169.507 148.009 170.236C146.428 170.775 144.799 171.321 143.131 171.226C141.464 171.131 139.729 170.24 139.143 168.676C138.803 167.768 138.885 166.761 139.027 165.802C139.511 162.537 140.648 159.369 142.351 156.542C144.727 152.596 146.155 147.995 145.879 143.398C145.603 138.8 143.506 134.236 139.854 131.428ZM132.53 120.533C136.96 124.653 140.896 129.303 144.227 134.352C145.374 136.091 146.461 137.901 147.073 139.893C148.259 143.755 147.554 147.968 146.183 151.769C144.812 155.569 142.801 159.106 141.279 162.848C140.436 164.921 139.914 167.694 141.684 169.063C143.14 170.189 145.23 169.604 146.959 168.973C149.552 168.025 152.145 167.077 154.738 166.129C156.89 165.343 159.048 164.554 161.091 163.517C170.427 158.779 176.405 149.466 181.934 140.575C182.434 139.77 182.941 138.952 183.201 138.04C183.471 137.092 183.462 136.09 183.45 135.104C183.399 130.757 183.347 126.409 183.296 122.062C183.278 120.532 183.245 118.941 182.554 117.576C181.32 115.143 178.442 114.161 175.967 113.014C172.253 111.293 168.931 108.733 166.319 105.582C165.645 104.769 165.001 103.88 164.794 102.845C164.426 101.006 165.501 99.1987 165.661 97.3299C165.923 94.2694 163.613 91.4517 160.828 90.1562C158.043 88.8606 154.869 88.766 151.798 88.7415C148.886 88.7183 145.937 88.7422 143.119 89.4777C134.729 91.6679 128.987 100.033 127.755 108.617C127.406 111.052 127.38 113.643 128.469 115.849C129.389 117.713 131.008 119.117 132.53 120.533Z" fill="black"/>
<path d="M92.1351 250.321C95.4079 252.311 99.2962 252.971 103.088 253.514C109.119 254.377 115.179 255.039 121.255 255.5C129.081 256.093 137.413 256.24 144.22 252.333C144.723 252.045 145.236 251.713 145.512 251.202C146.347 249.651 144.44 247.971 142.706 247.661C140.972 247.351 138.968 247.529 137.7 246.305C140.253 245.037 143.465 245.212 145.865 246.749C148.265 248.285 149.768 251.13 149.684 253.979C149.616 256.314 148.566 258.563 148.675 260.897C148.807 263.744 145.905 265.72 143.256 266.772C134.835 270.115 125.521 270.201 116.462 270.068C108.436 269.951 100.1 269.62 92.9673 265.937C91.1736 265.011 89.4211 263.818 88.4294 262.059C87.5392 260.481 87.3529 258.616 87.185 256.811C86.8473 253.183 86.6343 249.125 88.9717 246.329C91.2003 243.664 95.0072 243.058 98.4727 242.808C100.146 242.686 100.735 240.465 100.429 238.815C100.123 237.165 99.3951 235.408 100.113 233.891C101.547 230.864 106.527 232.352 109.087 230.191C109.937 229.474 111.302 230.751 110.972 231.812C110.642 232.874 109.394 233.371 108.282 233.392C107.171 233.413 106.064 233.106 104.957 233.208C103.849 233.309 102.655 234.017 102.561 235.125C112.767 239.22 124.29 239.952 134.932 237.181C133.1 234.938 130.167 233.643 127.276 233.799C127.322 233.086 128.12 232.682 128.823 232.552C132.009 231.963 135.289 234.192 136.509 237.193C137.729 240.195 137.157 243.703 135.636 246.564C134.253 246.133 134.362 244.177 134.585 242.746C134.809 241.314 134.22 239.247 132.798 239.523C123.077 241.406 112.863 240.675 103.51 237.426C102.796 237.178 102.342 238.182 102.255 238.932C101.929 241.739 101.762 245.007 103.837 246.926C104.855 247.867 106.24 248.286 107.585 248.626C114.894 250.471 122.582 250.804 130.023 249.598C131.064 249.429 132.391 249.358 132.9 250.283C127.262 252.839 120.765 252.257 114.607 251.625C111.696 251.326 108.727 251.012 106.058 249.813C103.456 248.644 101.253 246.68 98.5924 245.65C95.9316 244.621 92.3666 244.888 90.9156 247.345C90.7555 247.616 90.6249 247.913 90.6023 248.226C90.5367 249.136 91.3557 249.847 92.1351 250.321ZM146.924 261.555C148.109 258.905 147.018 255.865 146.667 252.984C138.582 258.506 127.949 258.029 118.212 257.008C112.566 256.415 106.933 255.712 101.315 254.898C97.6716 254.371 93.8449 253.714 90.997 251.382C90.2325 250.756 89.3824 252.068 89.2558 253.048C88.8878 255.898 88.5679 258.999 90.0484 261.462C91.6719 264.163 94.9678 265.287 98.0276 266.041C111.493 269.362 125.745 269.446 139.249 266.286C142.286 265.575 145.65 264.403 146.924 261.555V261.555Z" fill="black"/>
<path d="M163.565 26.4919C165.157 26.145 166.785 26.759 168.284 27.3975C196.962 39.6166 219.338 65.7193 227.031 95.9279C234.724 126.137 227.558 159.762 208.217 184.21C188.877 208.657 157.802 223.369 126.634 222.834C126.001 226.454 125.367 230.075 124.733 233.695C124.733 230.627 124.683 227.38 123.074 224.768C121.464 222.156 117.692 220.626 115.227 222.452C111.859 226.474 114.462 233.764 119.616 234.743C118.608 237.108 114.72 236.371 113.414 234.158C112.107 231.944 112.403 229.188 112.202 226.625C112.001 224.062 110.818 221.116 108.297 220.613C100.813 219.12 93.4732 216.909 86.4103 214.02C81.8392 212.151 76.5706 208.478 77.6418 203.657C78.433 200.096 82.6465 198.189 86.2628 198.668C89.8791 199.147 92.9986 201.353 95.9542 203.491C97.4959 198.164 99.0376 192.836 100.579 187.508C95.7269 187.733 94.3648 180.624 90.2762 178.001C71.5705 166 59.1007 144.788 57.7121 122.607C56.3235 100.427 66.0505 77.8252 83.1136 63.5853C100.177 49.3455 124.154 43.8193 145.728 49.1542C148.288 46.0052 153.073 44.9147 156.745 46.6438C160.178 44.8921 160.002 40.0334 159.571 36.2038C159.14 32.3742 159.8 27.3127 163.565 26.4919V26.4919ZM193.636 142.527C202.046 120.427 198.092 94.0641 183.568 75.4039C182.516 74.052 181.327 72.6783 179.702 72.1353C176.032 70.9085 172.361 69.6818 168.691 68.455C169.089 70.0029 167.851 71.5919 166.356 72.1579C164.862 72.7238 163.201 72.5319 161.615 72.3301C158.791 71.9706 155.875 71.574 153.436 70.1053C150.997 68.6365 149.148 65.7929 149.739 63.0077C150.21 60.7824 147.483 59.3563 145.292 58.7455C139.572 57.151 133.852 55.5564 128.131 53.9619C126.884 53.6143 125.55 53.2104 124.754 52.1901C123.957 51.1699 124.114 49.3396 125.34 48.9247C115.754 49.1809 106.233 51.6432 97.7252 56.0669C104.508 59.5826 111.42 63.193 116.731 68.6859C120.895 72.994 124.026 78.7687 123.521 84.7395C123.084 89.913 119.929 94.5917 115.82 97.7653C111.711 100.939 106.716 102.764 101.681 104.03C94.2518 105.897 85.2516 106.191 80.1401 100.485C78.6531 98.8256 75.9957 99.2558 73.8406 99.8225C70.204 100.779 66.5674 101.735 62.9309 102.691C62.0842 102.914 61.0592 103.346 61.0304 104.221C60.943 106.875 62.9096 109.454 65.4918 110.072C68.074 110.691 70.9956 109.282 72.1198 106.877C72.797 105.427 74.8384 105.201 76.3341 105.769C77.8298 106.336 79.0676 107.448 80.5554 108.036C82.9134 108.967 85.6819 108.5 87.9626 109.607C91.7667 111.454 92.4148 116.635 91.6892 120.801C90.3425 128.534 85.9583 135.695 79.6845 140.411C75.5676 143.506 76.2822 149.92 78.3541 154.636C80.4259 159.351 83.5069 164.092 82.7874 169.192C79.9623 163.285 77.57 157.17 75.636 150.914C74.5691 147.463 73.9585 142.984 76.9005 140.888C83.1512 136.434 87.7893 129.766 89.7893 122.356C90.9881 117.915 90.392 111.85 85.9897 110.515C84.2833 109.997 82.3962 110.381 80.7015 109.827C79.2824 109.362 78.1455 108.288 76.7829 107.677C75.4204 107.067 73.5019 107.119 72.7828 108.427C70.3329 112.886 62.8136 113.068 60.1503 108.734C57.0576 130.817 65.4221 154.192 81.8227 169.3C98.2233 184.408 122.206 190.829 143.961 185.937C165.716 181.046 184.641 164.977 192.997 144.303C190.675 143.268 189.36 140.702 189.021 138.183C188.681 135.664 189.134 133.116 189.385 130.587C189.89 125.5 189.573 120.333 188.45 115.346C188.148 114.005 187.556 112.444 186.21 112.166C182.169 111.331 178.335 109.515 175.129 106.917C172.694 104.944 170.651 101.033 173.02 98.9813C174.124 98.0255 172.557 96.4513 171.987 95.1071C170.782 92.2694 174.471 89.9387 177.419 89.0392C180.877 87.9845 184.334 86.9298 187.791 85.8751C188.164 85.7612 188.56 85.6464 188.939 85.739C190.041 86.0079 189.963 87.7874 189.036 88.4409C188.109 89.0944 186.871 88.9886 185.737 88.9616C181.226 88.8545 176.696 90.5052 173.312 93.4896C174.817 95.1544 175.205 97.7407 174.253 99.7736C173.108 102.221 174.734 105.191 176.981 106.691C179.229 108.191 181.971 108.703 184.494 109.672C187.016 110.641 189.559 112.362 190.17 114.994C191.407 120.327 191.676 125.883 190.96 131.311C190.42 135.408 189.914 140.731 193.636 142.527V142.527ZM103.025 205.191C101.613 203.626 101.962 201.144 102.843 199.228C103.723 197.312 105.054 195.558 105.427 193.483C105.8 191.408 104.675 188.818 102.573 188.657C101.034 193.73 99.4942 198.804 97.9549 203.877C126.092 213.382 158.835 207.853 182.291 189.636C205.747 171.42 219.209 141.064 216.965 111.45C214.721 81.8361 196.839 53.8553 170.906 39.3808C170.288 39.0356 169.595 38.6863 168.903 38.8365C168.014 39.0295 167.509 39.9459 167.118 40.7675C165.816 43.5057 164.515 46.2438 163.213 48.9819C166.28 50.7825 167.918 54.7156 167.037 58.1607C184.586 69.2832 196.806 88.4454 199.489 109.048C202.172 129.651 195.268 151.304 181.153 166.55C167.038 181.796 145.981 190.347 125.232 189.257C120.37 189.001 115.132 188.328 110.942 190.809C106.098 193.677 104.357 199.721 103.025 205.191H103.025ZM169.271 29.7972C167.671 29.0837 165.93 28.398 164.212 28.7388C162.493 29.0796 160.967 30.9006 161.593 32.5369C191.72 44.8366 214.211 74.1432 218.297 106.427C222.384 138.711 207.906 172.697 181.794 192.117C155.682 211.536 118.967 215.621 89.2246 202.417C86.336 201.134 82.3922 199.935 80.4866 202.456C79.3134 204.009 79.7064 206.328 80.8894 207.873C82.0724 209.418 83.865 210.355 85.6214 211.192C117.349 226.312 157.097 223.002 185.886 202.842C214.676 182.681 231.378 146.462 228.019 111.476C224.66 76.4905 201.371 44.1111 169.271 29.7972V29.7972ZM62.2836 101.288C65.9857 100.278 69.6878 99.2668 73.3899 98.256C75.9433 97.5589 79.1053 97.0242 80.8687 98.9981C83.7163 102.186 88.1261 103.644 92.3996 103.725C96.673 103.806 100.87 102.655 104.935 101.334C110.476 99.5341 116.378 96.9948 119.031 91.8076C120.589 88.7588 122.19 85.5205 121.978 82.103C121.783 78.953 120.074 76.1253 118.412 73.4421C117.016 71.1875 115.584 68.8909 113.544 67.1963C110.064 64.3051 105.147 63.4434 101.966 60.2249C100.128 58.3644 97.2075 57.911 94.6568 58.4899C92.1061 59.0687 89.8515 60.5319 87.7468 62.0848C75.6803 70.9876 66.5856 83.8492 62.2137 98.1931C61.9008 99.2197 61.6398 100.43 62.2836 101.288ZM167.368 67.8216C168.549 66.123 171.217 66.7145 172.978 67.8021C174.738 68.8897 176.635 70.362 178.639 69.8482C167.692 58.7444 153.027 51.3708 137.585 49.206C133.587 48.6456 129.004 48.6104 126.13 51.4454C133.321 53.6021 140.511 55.7589 147.702 57.9156C148.648 58.1993 149.647 58.5161 150.294 59.2615C151.433 60.572 151.026 62.5635 151.343 64.2706C151.799 66.7315 153.866 68.6468 156.176 69.609C158.487 70.5713 161.038 70.7426 163.535 70.9018C164.404 70.9572 165.371 70.9809 166.027 70.4092C166.766 69.765 166.808 68.6261 167.368 67.8216ZM165.184 56.9231C165.856 55.4538 165.251 53.6501 164.135 52.4817C163.019 51.3132 161.488 50.6481 159.989 50.0467C157.359 48.9923 154.631 48.03 151.799 47.9538C151.089 47.9347 150.308 48.0002 149.799 48.495C149.289 48.9899 149.336 50.0421 150.016 50.2478C155.316 51.8509 160.422 54.0978 165.184 56.9231ZM113.516 187.572C108.362 186.611 103.345 184.916 98.6635 182.554C98.2764 182.359 97.8641 182.153 97.4324 182.194C97.0007 182.235 96.5746 182.639 96.6838 183.058C96.7578 183.343 97.0332 183.52 97.2865 183.669C99.9776 185.251 102.691 186.843 105.644 187.857C108.597 188.87 111.841 189.276 114.849 188.439C114.748 187.882 114.072 187.676 113.516 187.572V187.572ZM165.561 36.4381C165.156 35.8454 164.208 35.8884 163.647 36.3359C163.086 36.7835 162.816 37.4929 162.57 38.1673C161.544 40.9868 160.518 43.8064 159.492 46.6259C159.398 46.885 159.302 47.1555 159.333 47.4294C159.421 48.2251 160.551 48.5135 161.236 48.099C161.921 47.6846 162.246 46.8798 162.527 46.1301C163.513 43.5004 164.499 40.8708 165.485 38.2411C165.705 37.6543 165.914 36.9557 165.561 36.4381V36.4381Z" fill="black"/>
</g>
<defs>
<clipPath id="clip0_151_800">
<rect width="243.712" height="243.712" fill="white" transform="translate(21.9678 26.3916)"/>
</clipPath>
</defs>
</svg>
