<svg width="86" height="86" viewBox="0 0 86 86" fill="none" xmlns="http://www.w3.org/2000/svg">
<circle cx="43" cy="43" r="43" fill="#2C7FFF"/>
<path d="M62.2992 55.7308H61.8929V40.8331C61.8929 39.2756 60.6063 37.9213 58.9811 37.9213H55.3244C53.7669 37.9213 52.4126 39.2079 52.4126 40.8331V55.7308H48.0787V47.4016C48.0787 45.8441 46.7921 44.4898 45.1669 44.4898H41.5102C39.9528 44.5575 38.5984 45.8441 38.5984 47.4016V55.7308H34.1969V30.7434C34.1969 29.1859 32.9102 27.8315 31.285 27.8315H27.6284C26.0709 27.8315 24.7165 29.1182 24.7165 30.7434V55.7308H24.378C23.5654 55.7308 22.8205 56.4079 22.8205 57.2882C22.8205 58.1686 23.4976 58.8457 24.378 58.8457H62.2992C63.1118 58.8457 63.8567 58.1686 63.8567 57.2882C63.8567 56.4079 63.1118 55.7308 62.2992 55.7308ZM27.8315 55.7308V30.9465H31.1496V55.7985H27.8315V55.7308ZM41.6457 55.7308V47.6048H44.9638V55.7985H41.6457V55.7308ZM55.5276 55.7308V41.0363H58.8457V55.7308H55.5276Z" fill="#FFF9F9"/>
</svg>
