<svg width="38" height="30" viewBox="0 0 38 30" fill="none" xmlns="http://www.w3.org/2000/svg">
<g id="Group">
<path id="Vector" d="M36.5 20.5625H34.8125V4.9375C34.8125 2.3125 32.6875 0.125 30 0.125H8C5.375 0.125 3.1875 2.25 3.1875 4.9375V20.5625H1.5C0.75 20.5625 0.0625 21.1875 0.0625 22V24.6875C0.0625 27.625 2.4375 29.9375 5.3125 29.9375H32.5625C35.5 29.9375 37.8125 27.5625 37.8125 24.6875V22C37.9375 21.1875 37.25 20.5625 36.5 20.5625ZM6 4.875C6 3.75 6.875 2.875 8 2.875H29.9375C31.0625 2.875 31.9375 3.75 31.9375 4.875V20.5H6V4.875ZM35.125 24.625C35.125 26 34 27.0625 32.6875 27.0625H5.375C4 27.0625 2.9375 25.9375 2.9375 24.625V23.375H35.125V24.625Z" fill="#111928"/>
<path id="Vector_2" d="M20.1875 4.9375H17.8125C17.0625 4.9375 16.375 5.5625 16.375 6.375C16.375 7.1875 17 7.8125 17.8125 7.8125H20.1875C20.9375 7.8125 21.625 7.1875 21.625 6.375C21.625 5.5625 20.9375 4.9375 20.1875 4.9375Z" fill="#111928"/>
</g>
</svg>
