<?xml version="1.0" encoding="UTF-8"?>
<svg xmlns="http://www.w3.org/2000/svg" xmlns:xlink="http://www.w3.org/1999/xlink" width="38px" height="38px" viewBox="0 0 38 38" version="1.1">
<g id="surface1">
<path style=" stroke:none;fill-rule:nonzero;fill:rgb(0%,0%,0%);fill-opacity:1;" d="M 19 38 C 26.300781 38 32.242188 32.058594 32.242188 24.757812 C 32.242188 21.328125 30.933594 18.203125 28.789062 15.847656 L 28.789062 9.789062 C 28.789062 4.390625 24.398438 0 19 0 C 13.601562 0 9.210938 4.390625 9.210938 9.789062 L 9.210938 15.847656 C 7.066406 18.203125 5.757812 21.328125 5.757812 24.757812 C 5.757812 32.058594 11.699219 38 19 38 Z M 20.726562 25.332031 L 20.726562 27.636719 C 20.726562 28.589844 19.953125 29.363281 19 29.363281 C 18.046875 29.363281 17.273438 28.589844 17.273438 27.636719 L 17.273438 25.332031 C 16.574219 24.804688 16.121094 23.96875 16.121094 23.03125 C 16.121094 21.441406 17.414062 20.152344 19 20.152344 C 20.585938 20.152344 21.878906 21.441406 21.878906 23.03125 C 21.878906 23.96875 21.425781 24.804688 20.726562 25.332031 Z M 12.667969 9.789062 C 12.667969 6.296875 15.507812 3.453125 19 3.453125 C 22.492188 3.453125 25.332031 6.296875 25.332031 9.789062 L 25.332031 13.128906 C 23.449219 12.101562 21.292969 11.515625 19 11.515625 C 16.707031 11.515625 14.550781 12.101562 12.667969 13.128906 Z M 12.667969 9.789062 "/>
</g>
</svg>
