<?xml version="1.0" encoding="UTF-8"?>
<svg id="Layer_1" data-name="Layer 1" xmlns="http://www.w3.org/2000/svg" viewBox="0 0 527.394 462.227" preserveAspectRatio="xMidYMid meet">
  <g>
    <path d="M472.031,234.768c.822-42.725-29.859-82.293-85.72-88.641-72.706-8.262-136.529,49.482-159.057,65.043-53.591,37.017-130.197,42.504-183.463,5.02,11.941,38.431,52.065,64.273,92.048,68.842,39.983,4.569,80.292-9.697,113.998-31.684,22.383-14.601,70.869-60.957,122.336-65.729,40.545-3.759,75.822,14.845,99.858,47.15Z" fill="#00b3fb"/>
    <path d="M469.287,280.87c2.45-42.99-62.407-98.223-133.571-48.471-45.668,31.927-80.207,55.479-124.273,63.405,72.598,29.166,129.663-10.779,174.363-33.921,28.79-14.905,59.893-3.252,83.481,18.988Z" fill="#00ccfb"/>
    <path d="M491.915,24.207c-34.079,5.68-77.834,26.926-119.486,78.675-50.064-39.269-120.415-57.556-183.468-49.028-63.053,8.527-123.562,44.955-161.398,96.111,32.197,36.401,136.233,124.918,176.648,27.832,1.266-2.666,1.964-5.307,2.233-7.821.831-2.615,1.469-5.27,1.871-7.956,3.453-23.043-5.744-48.307-22.481-64.518,8.635,20.411,10.357,43.379,5.904,65.067-25.54,78.37-120.716,6.628-138.063-13.071,41.819-40.919,98.478-66.334,156.848-70.358,58.37-4.024,120.562,16.737,167.6,51.53,25.229-29.05,51.855-60.263,86.355-76.04-11.07,20.52-39.149,74.248-2.16,113.398-8.1-60.479,31.859-97.198,29.597-143.821Z" fill="#001963"/>
    <ellipse cx="134.779" cy="131.115" rx="11.541" ry="12.118"/>
    <path d="M201.762,46.319c68.318-5.667,96.811,20.779,140.572,21.094C296.054,51.986,254.261,20.482,217.373,0c-25.379,16.434-44.188,37.113-63.003,57.155,14.211-6.659,31.965-9.262,47.392-10.836Z" fill="#001963"/>
  </g>
  <g>
    <path d="M0,408.229c0-30.148,23.849-53.998,54.147-53.998,15.75,0,29.399,6.45,38.548,15.899,1.95,2.101,3,5.101,3,7.65,0,6.149-5.1,11.1-11.25,11.1-3,0-6-1.65-9-4.351-5.55-5.1-12.6-8.549-21.299-8.549-17.249,0-30.898,14.249-30.898,32.248s13.649,32.249,30.898,32.249c8.7,0,15.75-3.45,21.299-8.55,3-2.7,6-4.35,9-4.35,6.15,0,11.25,4.949,11.25,11.1,0,2.55-1.05,5.55-3,7.649-9.149,9.449-22.799,15.899-38.548,15.899-30.299,0-54.147-23.849-54.147-53.998Z" fill="#001963"/>
    <path d="M106.199,408.229c0-30.148,23.849-53.998,54.147-53.998s54.148,23.85,54.148,53.998-23.849,53.998-54.148,53.998-54.147-23.849-54.147-53.998ZM191.246,408.229c0-17.999-13.649-32.248-30.899-32.248s-30.898,14.249-30.898,32.248,13.649,32.249,30.898,32.249,30.899-14.25,30.899-32.249Z" fill="#001963"/>
    <path d="M224.997,438.228c0-6.149,5.1-11.25,11.25-11.25,4.5,0,7.2,2.4,9.149,5.101,3,4.05,5.25,9.149,13.35,9.149,6.75,0,12-5.25,12-12,0-7.05-6.3-9.449-14.1-11.999l-7.65-2.55c-11.399-3.75-23.249-10.8-23.249-30.599,0-16.949,14.55-29.85,32.999-29.85,19.799,0,32.099,14.399,32.099,22.35,0,6.149-5.101,11.249-11.25,11.249-4.35,0-6.6-2.1-8.699-4.649-2.85-3.6-5.25-7.949-12.149-7.949-5.85,0-10.5,4.649-10.5,10.35,0,6.149,5.7,9.149,11.849,11.099l6.45,2.101c12.599,4.05,26.699,10.199,26.699,31.948,0,17.999-15.149,31.499-34.498,31.499-19.649,0-33.749-14.699-33.749-23.999Z" fill="#001963"/>
    <path d="M322.646,376.731h-16.649c-5.85,0-10.5-4.65-10.5-10.5s4.65-10.5,10.5-10.5h55.798c5.85,0,10.499,4.65,10.499,10.5s-4.649,10.5-10.499,10.5h-16.649v74.246c0,6.15-5.1,11.25-11.25,11.25s-11.249-5.1-11.249-11.25v-74.246Z" fill="#001963"/>
    <path d="M428.995,358.731c2.699-3.3,5.999-4.5,8.999-4.5,6.15,0,11.25,5.101,11.25,11.25v85.496c0,6.15-5.1,11.25-11.25,11.25s-11.249-5.1-11.249-11.25v-8.249h-13.8c-5.85,0-10.499-4.65-10.499-10.5s4.649-10.499,10.499-10.499h13.8v-27.449l-53.848,64.197c-1.801,2.1-5.25,3.75-8.101,3.75-5.85,0-10.499-4.649-10.499-10.5,0-2.25.45-4.35,2.399-6.749l72.298-86.247Z" fill="#001963"/>
    <path d="M467.246,365.481c0-6.149,5.1-11.25,11.249-11.25s11.25,5.101,11.25,11.25v74.247h27.148c5.85,0,10.5,4.649,10.5,10.499s-4.65,10.5-10.5,10.5h-38.398c-6.149,0-11.249-5.1-11.249-11.25v-83.996Z" fill="#001963"/>
  </g>
</svg>