<?xml version="1.0" encoding="UTF-8"?>
<svg id="Layer_1" xmlns="http://www.w3.org/2000/svg" viewBox="0 0 1640.576 306.063">
  <g>
    <path d="M444.468,234.768c.822-42.725-29.859-82.293-85.72-88.641-72.706-8.262-136.529,49.482-159.057,65.043-53.591,37.017-130.197,42.504-183.463,5.02,11.941,38.431,52.065,64.273,92.048,68.842s80.292-9.697,113.998-31.684c22.383-14.601,70.869-60.957,122.336-65.729,40.545-3.759,75.822,14.845,99.858,47.15h0Z" fill="#fff"/>
    <path d="M441.724,280.87c2.45-42.99-62.407-98.223-133.571-48.471-45.668,31.927-80.207,55.479-124.273,63.405,72.598,29.166,129.663-10.779,174.363-33.921,28.79-14.905,59.893-3.252,83.481,18.988h0Z" fill="#fff"/>
    <path d="M464.352,24.207c-34.079,5.68-77.834,26.926-119.486,78.675-50.064-39.269-120.415-57.556-183.468-49.028C98.345,62.381,37.836,98.809,0,149.965c32.197,36.401,136.233,124.918,176.648,27.832,1.266-2.666,1.964-5.307,2.233-7.821.831-2.615,1.469-5.27,1.871-7.956,3.453-23.043-5.744-48.307-22.481-64.518,8.635,20.411,10.357,43.379,5.904,65.067-25.54,78.37-120.716,6.628-138.063-13.071,41.819-40.919,98.478-66.334,156.848-70.358,58.37-4.024,120.562,16.737,167.6,51.53,25.229-29.05,51.855-60.263,86.355-76.04-11.07,20.52-39.149,74.248-2.16,113.398-8.1-60.479,31.859-97.198,29.597-143.821Z" fill="#fff"/>
    <ellipse cx="107.216" cy="131.115" rx="11.541" ry="12.118" fill="#fff"/>
    <path d="M174.199,46.319c68.318-5.667,96.811,20.779,140.572,21.094C268.491,51.986,226.698,20.482,189.81,0c-25.379,16.434-44.188,37.113-63.003,57.155,14.211-6.659,31.965-9.262,47.392-10.836Z" fill="#fff"/>
  </g>
  <g>
    <path d="M548.876,160.371c0-62.407,49.366-111.776,112.085-111.776,32.601,0,60.856,13.352,79.795,32.912,4.037,4.348,6.21,10.558,6.21,15.836,0,12.729-10.556,22.976-23.286,22.976-6.21,0-12.419-3.416-18.629-9.006-11.488-10.556-26.081-17.696-44.089-17.696-35.705,0-63.96,29.495-63.96,66.753s28.254,66.755,63.96,66.755c18.008,0,32.601-7.142,44.089-17.698,6.21-5.589,12.419-9.004,18.629-9.004,12.73,0,23.286,10.245,23.286,22.976,0,5.278-2.173,11.488-6.21,15.834-18.939,19.56-47.193,32.912-79.795,32.912-62.718,0-112.085-49.366-112.085-111.776v.002Z" fill="#fff"/>
    <path d="M768.708,160.371c0-62.407,49.366-111.776,112.085-111.776s112.086,49.368,112.086,111.776-49.367,111.776-112.086,111.776-112.085-49.366-112.085-111.776ZM944.753,160.371c0-37.258-28.254-66.753-63.961-66.753s-63.96,29.495-63.96,66.753,28.254,66.755,63.96,66.755,63.961-29.497,63.961-66.755Z" fill="#fff"/>
    <path d="M1014.618,222.469c0-12.729,10.557-23.287,23.287-23.287,9.314,0,14.903,4.969,18.939,10.558,6.21,8.383,10.867,18.939,27.634,18.939,13.971,0,24.839-10.867,24.839-24.84,0-14.593-13.041-19.56-29.186-24.838l-15.835-5.278c-23.597-7.762-48.125-22.356-48.125-63.339,0-35.085,30.118-61.788,68.308-61.788,40.983,0,66.444,29.807,66.444,46.264,0,12.729-10.558,23.285-23.287,23.285-9.004,0-13.661-4.346-18.007-9.624-5.9-7.451-10.867-16.455-25.149-16.455-12.11,0-21.734,9.624-21.734,21.424,0,12.729,11.798,18.939,24.528,22.974l13.351,4.348c26.08,8.383,55.266,21.112,55.266,66.133,0,37.258-31.359,65.203-71.411,65.203-40.674,0-69.86-30.427-69.86-49.678h-.002Z" fill="#fff"/>
    <path d="M1216.752,95.171h-34.464c-12.109,0-21.735-9.626-21.735-21.735s9.626-21.735,21.735-21.735h115.501c12.109,0,21.733,9.626,21.733,21.735s-9.624,21.735-21.733,21.735h-34.464v153.689c0,12.731-10.556,23.287-23.287,23.287s-23.285-10.556-23.285-23.287V95.171h0Z" fill="#fff"/>
    <path d="M1436.893,57.911c5.587-6.831,12.418-9.315,18.628-9.315,12.731,0,23.287,10.558,23.287,23.287v176.976c0,12.731-10.556,23.287-23.287,23.287s-23.285-10.556-23.285-23.287v-17.075h-28.565c-12.109,0-21.733-9.626-21.733-21.735s9.624-21.733,21.733-21.733h28.565v-56.82l-111.464,132.888c-3.728,4.346-10.867,7.762-16.768,7.762-12.109,0-21.733-9.624-21.733-21.735,0-4.657.932-9.004,4.967-13.97l149.656-178.531h-.001Z" fill="#fff"/>
    <path d="M1516.072,71.883c0-12.729,10.556-23.287,23.285-23.287s23.287,10.558,23.287,23.287v153.691h56.197c12.109,0,21.735,9.624,21.735,21.733s-9.626,21.735-21.735,21.735h-79.484c-12.729,0-23.285-10.556-23.285-23.287V71.883Z" fill="#fff"/>
  </g>
</svg>