<svg width="24" height="16" viewBox="0 0 24 16" fill="none" xmlns="http://www.w3.org/2000/svg">
<g id="Group">
<path id="Vector" d="M22.5 7.17529H11.7375C11.2875 7.17529 10.875 7.55029 10.875 8.03779C10.875 8.48779 11.25 8.90029 11.7375 8.90029H22.5C22.95 8.90029 23.3625 8.52529 23.3625 8.03779C23.3625 7.55029 22.95 7.17529 22.5 7.17529Z" fill="#111928"/>
<path id="Vector_2" d="M22.5002 13.5503H1.5002C1.0502 13.5503 0.637695 13.9253 0.637695 14.4128C0.637695 14.9003 1.0127 15.2753 1.5002 15.2753H22.5002C22.9502 15.2753 23.3627 14.9003 23.3627 14.4128C23.3627 13.9253 22.9502 13.5503 22.5002 13.5503Z" fill="#111928"/>
<path id="Vector_3" d="M1.5002 2.4501H22.5002C22.9502 2.4501 23.3627 2.0751 23.3627 1.5876C23.3627 1.1001 22.9877 0.725098 22.5002 0.725098H1.5002C1.0502 0.725098 0.637695 1.1001 0.637695 1.5876C0.637695 2.0751 1.0502 2.4501 1.5002 2.4501Z" fill="#111928"/>
</g>
</svg>
