<svg width="86" height="86" viewBox="0 0 86 86" fill="none" xmlns="http://www.w3.org/2000/svg">
<circle cx="43" cy="43" r="43" fill="#2C7FFF"/>
<path d="M63.1118 30.4724C60.9449 28.1701 58.6425 25.8677 56.3402 23.6331C55.8661 23.159 55.3244 22.8882 54.715 22.8882C54.1055 22.8882 53.4961 23.0913 53.0898 23.5653L27.5606 48.8913C27.1543 49.2976 26.8835 49.7716 26.6803 50.2457L22.9559 61.622C22.7528 62.1638 22.8882 62.7055 23.1591 63.1118C23.4976 63.5181 23.9717 63.789 24.5811 63.789H24.852L36.4315 59.9291C36.9732 59.726 37.4472 59.4551 37.7858 59.0488L63.1795 33.7228C63.5858 33.3165 63.8567 32.7071 63.8567 32.0976C63.8567 31.4882 63.5858 30.9465 63.1118 30.4724ZM35.6189 56.9496C35.5512 57.0173 35.4835 57.0173 35.4157 57.085L26.6803 59.9968L29.5921 51.2614C29.5921 51.1937 29.6598 51.126 29.7276 51.0583L48.3496 32.5039L54.2409 38.3953L35.6189 56.9496ZM56.3402 36.2283L50.4488 30.337L54.5795 26.2063C56.5433 28.1024 58.5071 30.1339 60.4031 32.0976L56.3402 36.2283Z" fill="white"/>
</svg>
