<svg width="16" height="16" viewBox="0 0 16 16" fill="none" xmlns="http://www.w3.org/2000/svg">
<g clip-path="url(#clip0_182_206)">
<path d="M15.0352 14.3133L15.0352 14.3133L15.038 14.3156C15.0475 14.3232 15.0518 14.3295 15.0539 14.3336C15.0563 14.338 15.058 14.3432 15.0585 14.3498C15.0596 14.3623 15.0567 14.3856 15.035 14.4128C15.0311 14.4177 15.0279 14.4197 15.0253 14.421C15.0228 14.4222 15.0155 14.4252 15.0004 14.4252C15.0042 14.4252 15.0002 14.4258 14.9889 14.4216C14.9789 14.418 14.9671 14.412 14.9553 14.4038L10.7897 11.0364L10.4559 10.7665L10.1386 11.0556C9.10193 12.0002 7.79577 12.5252 6.40039 12.5252C4.93339 12.5252 3.56045 11.9531 2.52894 10.9216C0.399206 8.7919 0.399206 5.30849 2.52894 3.17875C3.56045 2.14724 4.93339 1.5752 6.40039 1.5752C7.86739 1.5752 9.24033 2.14724 10.2718 3.17875L10.2718 3.17875L10.2739 3.18083C12.2165 5.10054 12.3809 8.14775 10.8218 10.2801L10.5413 10.6637L10.9102 10.9633L15.0352 14.3133ZM2.62184 10.8287C3.63973 11.8466 4.96655 12.4002 6.40039 12.4002C7.82854 12.4002 9.18289 11.8505 10.1802 10.8275C12.2763 8.75511 12.2717 5.3644 10.1789 3.27164C9.16105 2.25375 7.83423 1.7002 6.40039 1.7002C4.96711 1.7002 3.64077 2.25332 2.62303 3.27045C0.52449 5.34263 0.528264 8.73518 2.62184 10.8287Z" fill="#6B7280" stroke="#6B7280"/>
</g>
<defs>
<clipPath id="clip0_182_206">
<rect width="16" height="16" fill="white"/>
</clipPath>
</defs>
</svg>
