<svg width="20" height="20" viewBox="0 0 20 20" fill="none" xmlns="http://www.w3.org/2000/svg">
<g clip-path="url(#clip0_151_2481)">
<path d="M5.03161 19.4375C4.75036 19.4375 4.46911 19.3437 4.25036 19.1875C3.81286 18.875 3.56286 18.3125 3.65661 17.7812L4.46911 12.75L0.96911 9.15625C0.59411 8.78125 0.46911 8.21875 0.62536 7.6875C0.78161 7.1875 1.21911 6.8125 1.71911 6.75L6.56286 5.96875L8.75036 1.375C9.00036 0.875 9.46911 0.5625 10.0004 0.5625C10.5316 0.5625 11.0316 0.875 11.2504 1.375L13.4379 5.9375L18.2504 6.6875C18.7504 6.78125 19.1879 7.125 19.3441 7.625C19.5316 8.15625 19.3754 8.71875 19.0004 9.09375L15.5316 12.7187L16.3441 17.7812C16.4379 18.3437 16.2191 18.875 15.7504 19.1875C15.3129 19.5 14.7816 19.5312 14.3129 19.2812L10.0004 16.9375L5.68786 19.2812C5.50036 19.4062 5.25036 19.4375 5.03161 19.4375ZM1.96911 8.125C1.96911 8.125 1.96911 8.15625 1.96911 8.1875L5.62536 11.9375C5.84411 12.1562 5.93786 12.5 5.90661 12.8125L5.06286 18.0312C5.06286 18.0312 5.06286 18.0312 5.06286 18.0625L9.56286 15.625C9.84411 15.4687 10.1879 15.4687 10.5004 15.625L15.0004 18.0625C15.0004 18.0625 15.0004 18.0625 15.0004 18.0312L14.1566 12.7812C14.0941 12.4688 14.2191 12.1562 14.4379 11.9062L18.0941 8.15625C18.1254 8.125 18.0941 8.09375 18.0941 8.09375L13.0629 7.3125C12.7504 7.25 12.4691 7.0625 12.3441 6.75L10.0004 2L7.75036 6.78125C7.62536 7.0625 7.34411 7.28125 7.03161 7.34375L1.96911 8.125Z" fill="#94A3B8"/>
</g>
<defs>
<clipPath id="clip0_151_2481">
<rect width="20" height="20" fill="white"/>
</clipPath>
</defs>
</svg>
