<svg width="30" height="30" viewBox="0 0 30 30" fill="none" xmlns="http://www.w3.org/2000/svg">
<path d="M14.3079 28.754C10.7541 28.754 7.43101 27.3694 4.89255 24.8771C-0.276683 19.7079 -0.276683 11.2617 4.89255 6.09248C9.32332 1.66171 16.2925 0.923248 21.4618 4.24632C21.9233 4.5694 22.0618 5.21556 21.7849 5.67709C21.4618 6.13863 20.8156 6.27709 20.3541 6.00017C15.9695 3.18479 10.1079 3.83094 6.36947 7.52325C1.98486 11.9079 1.98486 19.0156 6.36947 23.354C10.7541 27.7386 17.8618 27.7386 22.2002 23.354C25.8925 19.6617 26.5387 13.8002 23.7233 9.3694C23.4002 8.90786 23.5387 8.26171 24.0464 7.93863C24.5079 7.61556 25.1541 7.75402 25.4772 8.26171C28.8002 13.4771 28.0618 20.4463 23.6772 24.8309C21.1849 27.3694 17.8618 28.754 14.3079 28.754Z" fill="#111928"/>
<path d="M14.3079 24.3695C11.9079 24.3695 9.69252 23.4465 7.98483 21.7388C4.52329 18.2772 4.52329 12.6003 7.98483 9.13877C10.6617 6.46185 14.7233 5.76954 18.1387 7.38493C18.6464 7.61569 18.8771 8.26185 18.6464 8.76954C18.4156 9.27723 17.7694 9.508 17.2618 9.27723C14.6771 8.03108 11.5387 8.58493 9.5079 10.6157C6.83098 13.2926 6.83098 17.6311 9.5079 20.2618C10.8002 21.5542 12.5079 22.2465 14.3541 22.2465C16.2002 22.2465 17.9079 21.5542 19.2002 20.2618C21.231 18.2311 21.7848 15.0926 20.5387 12.508C20.3079 12.0003 20.4925 11.3542 21.0464 11.1234C21.5541 10.8926 22.2002 11.0772 22.431 11.6311C24.0464 15.0465 23.3541 19.108 20.6771 21.7849C18.9233 23.4465 16.7079 24.3695 14.3079 24.3695Z" fill="#111928"/>
<path d="M14.308 19.9849C13.108 19.9849 11.9542 19.5234 11.0772 18.6464C10.2003 17.7695 9.73877 16.6618 9.73877 15.4157C9.73877 14.2157 10.2003 13.0618 11.0772 12.1849C11.8618 11.4003 12.8772 10.9388 13.9849 10.8464C14.5849 10.8003 15.0465 11.2618 15.0926 11.8157C15.1388 12.3695 14.6772 12.8772 14.1234 12.9234C13.5234 12.9695 12.9695 13.2003 12.5542 13.6618C12.0926 14.1234 11.8157 14.7234 11.8157 15.4157C11.8157 16.0618 12.0926 16.708 12.5542 17.1695C13.0157 17.6311 13.6157 17.908 14.308 17.908C14.9542 17.908 15.6003 17.6311 16.0618 17.1695C16.4772 16.7541 16.7542 16.2003 16.7542 15.6003C16.8003 15.0464 17.2618 14.5849 17.8618 14.6311C18.4157 14.6772 18.8772 15.1388 18.8311 15.7388C18.7388 16.8464 18.2772 17.8618 17.4926 18.6464C16.6618 19.5234 15.5542 19.9849 14.308 19.9849Z" fill="#111928"/>
<path d="M14.5847 16.2464C14.3077 16.2464 14.0308 16.1541 13.8462 15.9233C13.4308 15.5079 13.4308 14.8618 13.8462 14.4464L27.1847 1.10793C27.6001 0.692541 28.2462 0.692541 28.6616 1.10793C29.077 1.52331 29.077 2.16946 28.6616 2.58485L15.3231 15.9233C15.0924 16.1541 14.8616 16.2464 14.5847 16.2464Z" fill="#111928"/>
</svg>
