<svg width="24" height="24" viewBox="0 0 24 24" fill="none" xmlns="http://www.w3.org/2000/svg">
<path d="M18.3377 3.3002H15.4502V2.66269C15.4502 1.5377 14.5502 0.637695 13.4252 0.637695H10.5377C9.4127 0.637695 8.5127 1.5377 8.5127 2.66269V3.3002H5.6252C4.5377 3.3002 3.6377 4.2002 3.6377 5.28769V6.41269C3.6377 7.2377 4.1252 7.91269 4.8377 8.21269L5.4377 21.1877C5.5127 22.4252 6.4877 23.3627 7.7252 23.3627H16.1627C17.4002 23.3627 18.4127 22.3877 18.4502 21.1877L19.1252 8.17519C19.8377 7.87519 20.3252 7.16269 20.3252 6.3752V5.2502C20.3252 4.2002 19.4252 3.3002 18.3377 3.3002ZM10.2377 2.66269C10.2377 2.4752 10.3877 2.3252 10.5752 2.3252H13.4627C13.6502 2.3252 13.8002 2.4752 13.8002 2.66269V3.3002H10.2752V2.66269H10.2377ZM5.3627 5.28769C5.3627 5.1377 5.4752 4.9877 5.6627 4.9877H18.3377C18.4877 4.9877 18.6377 5.1002 18.6377 5.28769V6.41269C18.6377 6.5627 18.5252 6.71269 18.3377 6.71269H5.6627C5.5127 6.71269 5.3627 6.60019 5.3627 6.41269V5.28769ZM16.2002 21.6752H7.8002C7.4627 21.6752 7.2002 21.4127 7.2002 21.1127L6.6002 8.40019H17.4377L16.8377 21.1127C16.8002 21.4127 16.5377 21.6752 16.2002 21.6752Z" fill="currentColor"/>
<path d="M12.0002 12.1504C11.5502 12.1504 11.1377 12.5254 11.1377 13.0129V17.7754C11.1377 18.2254 11.5127 18.6379 12.0002 18.6379C12.4502 18.6379 12.8627 18.2629 12.8627 17.7754V13.0129C12.8627 12.5254 12.4502 12.1504 12.0002 12.1504Z" fill="currentColor"/>
<path d="M14.9999 12.9003C14.5124 12.8628 14.1374 13.2003 14.0999 13.6878L13.8749 16.9878C13.8374 17.4378 14.1749 17.8503 14.6624 17.8878C14.6999 17.8878 14.6999 17.8878 14.7374 17.8878C15.1874 17.8878 15.5624 17.5503 15.5624 17.1003L15.7874 13.8003C15.7874 13.3128 15.4499 12.9378 14.9999 12.9003Z" fill="currentColor"/>
<path d="M8.96294 12.9003C8.51294 12.9378 8.13794 13.3503 8.17544 13.8003L8.43794 17.1003C8.47544 17.5503 8.85044 17.8878 9.26294 17.8878C9.30044 17.8878 9.30044 17.8878 9.33794 17.8878C9.78794 17.8503 10.1629 17.4378 10.1254 16.9878L9.86294 13.6878C9.86294 13.2003 9.45044 12.8628 8.96294 12.9003Z" fill="currentColor"/>
</svg>
