<svg width="24" height="24" viewBox="0 0 24 24" fill="none" xmlns="http://www.w3.org/2000/svg">
<g clip-path="url(#clip0_147_210)">
<path d="M6.03735 23.3248C5.69985 23.3248 5.36235 23.2123 5.09985 23.0248C4.57485 22.6498 4.27485 21.9748 4.38735 21.3373L5.36235 15.2998L1.16235 10.9873C0.712346 10.5373 0.562346 9.8623 0.749846 9.2248C0.937346 8.6248 1.46235 8.17481 2.06235 8.0998L7.87485 7.1623L10.4998 1.6498C10.7998 1.0498 11.3623 0.674805 11.9998 0.674805C12.6373 0.674805 13.2373 1.0498 13.4998 1.6498L16.1248 7.1248L21.8998 8.02481C22.4998 8.1373 23.0248 8.5498 23.2123 9.14981C23.4373 9.7873 23.2498 10.4623 22.7998 10.9123L18.6373 15.2623L19.6123 21.3373C19.7248 22.0123 19.4623 22.6498 18.8998 23.0248C18.3748 23.3998 17.7373 23.4373 17.1748 23.1373L11.9998 20.3248L6.82485 23.1373C6.59985 23.2873 6.29985 23.3248 6.03735 23.3248ZM2.36235 9.74981C2.36235 9.74981 2.36235 9.7873 2.36235 9.82481L6.74985 14.3248C7.01235 14.5873 7.12485 14.9998 7.08735 15.3748L6.07485 21.6373C6.07485 21.6373 6.07485 21.6373 6.07485 21.6748L11.4748 18.7498C11.8123 18.5623 12.2248 18.5623 12.5998 18.7498L17.9998 21.6748C17.9998 21.6748 17.9998 21.6748 17.9998 21.6373L16.9873 15.3373C16.9123 14.9623 17.0623 14.5873 17.3248 14.2873L21.7123 9.7873C21.7498 9.74981 21.7123 9.71231 21.7123 9.71231L15.6748 8.77481C15.2998 8.69981 14.9623 8.4748 14.8123 8.0998L11.9998 2.3998L9.29985 8.13731C9.14985 8.47481 8.81235 8.7373 8.43735 8.81231L2.36235 9.74981Z" fill="#E2E8F0"/>
</g>
<defs>
<clipPath id="clip0_147_210">
<rect width="24" height="24" fill="white"/>
</clipPath>
</defs>
</svg>
