<svg width="385" height="315" viewBox="0 0 385 315" fill="none" xmlns="http://www.w3.org/2000/svg">
<path fill-rule="evenodd" clip-rule="evenodd" d="M322.303 69.1314C265.033 37.4664 220.379 130.414 187.945 142.116C122.581 165.697 1.17096 186.207 24.325 232.054C56.1171 295.004 166.736 301.285 245.841 295.004C348.733 286.835 434.902 131.388 322.303 69.1314Z" fill="#60a5fa"/>
<path fill-rule="evenodd" clip-rule="evenodd" d="M313.999 170.592C314.589 171.093 314.79 171.879 314.937 172.63L315.834 177.347C315.959 178.003 316.53 178.313 316.75 177.94C316.983 177.545 317.605 177.709 318.021 177.922L323.222 180.589C321.453 181.812 319.365 182.605 317.205 182.874C316.14 183.006 315.968 184.412 316.081 185.44L316.389 188.239C316.485 189.111 315.061 189.408 314.35 188.861C313.639 188.314 313.369 187.397 312.808 186.706C311.903 185.59 310.303 185.174 308.839 185.303C307.374 185.433 306.003 186.024 304.663 186.607C303.799 186.983 302.849 185.987 302.917 185.076C302.976 184.272 303.51 183.599 304.054 182.971L304.271 182.723C304.882 182.024 305.492 181.196 305.389 180.288C305.303 179.532 304.743 178.923 304.181 178.38L303.852 178.062C303.331 177.549 302.837 176.978 302.745 176.277C302.641 175.475 303.401 174.552 304.199 174.8C307.272 175.758 310.973 173.891 311.909 170.912C312.152 170.138 313.369 170.057 313.999 170.592Z" fill="white"/>
<path fill-rule="evenodd" clip-rule="evenodd" d="M313.999 170.592C314.589 171.093 314.79 171.879 314.937 172.63L315.834 177.347C315.959 178.003 315.685 179.018 315.035 178.789C314.11 176.898 313.618 174.812 313.603 172.722C313.25 172.395 312.725 172.881 312.505 173.303L310.311 177.516C309.924 178.257 308.771 178.094 308.009 177.706L307.601 177.498C306.94 177.167 306.221 176.875 305.594 177.201C305.275 178.123 306.696 178.583 307.434 179.247C308.276 180.005 308.226 181.367 307.637 182.322C307.049 183.276 306.054 183.92 305.091 184.531C306.474 184.751 307.948 184.361 309.021 183.493C309.506 183.101 309.95 182.598 310.57 182.473C311.528 182.28 312.389 183.081 312.887 183.894C313.385 184.706 313.779 185.658 314.628 186.127C315.054 185.481 314.827 184.67 314.559 183.923L314.431 183.574C314.124 182.74 313.985 181.633 314.74 181.127C315.023 180.936 315.375 180.88 315.722 180.844L319.431 180.486L317.294 178.986C316.934 178.733 316.53 178.313 316.75 177.94C316.983 177.545 317.605 177.709 318.021 177.922L323.222 180.589C321.453 181.812 319.365 182.605 317.205 182.874C316.14 183.006 315.968 184.412 316.081 185.44L316.389 188.239C316.485 189.111 315.061 189.408 314.35 188.861C313.639 188.314 313.369 187.397 312.808 186.706C311.903 185.59 310.303 185.174 308.839 185.303C307.374 185.433 306.003 186.024 304.663 186.607C303.799 186.983 302.849 185.987 302.917 185.076C302.976 184.272 303.51 183.599 304.054 182.971L304.271 182.723C304.882 182.024 305.492 181.196 305.389 180.288C305.303 179.532 304.743 178.923 304.181 178.38L303.852 178.062C303.331 177.549 302.837 176.978 302.745 176.277C302.641 175.475 303.401 174.552 304.199 174.8C307.272 175.758 310.973 173.891 311.909 170.912C312.152 170.138 313.369 170.057 313.999 170.592Z" fill="#FFB61D"/>
<path fill-rule="evenodd" clip-rule="evenodd" d="M109.371 86.0046C107.146 76.4749 113.209 60.6562 124.043 54.2959C134.876 47.9356 148.733 47.4999 160.799 51.2769C160.414 40.0468 172.234 30.4101 183.856 31.3379C195.478 32.2657 205.121 42.3193 206.683 53.4544C207.9 62.1306 203.277 72.4651 194.338 74.0367C197.498 84.9144 199.255 96.3595 197.52 107.531C195.786 118.703 190.268 129.615 180.956 136.478C178.385 139.81 180.327 144.836 183.712 147.406C187.096 149.976 191.477 150.879 195.527 152.297C212.496 158.24 224.444 174.371 227.229 191.559C230.014 208.748 224.451 226.574 214.399 241.025C207.513 250.923 198.146 259.713 186.427 263.52C169.978 268.863 151.943 263.66 135.97 257.111C129.882 254.615 123.681 251.778 119.383 246.93C114.775 241.733 106.067 244.54 99.7873 247.718C103.963 249.388 108.139 251.057 112.314 252.726C113.211 253.085 114.185 253.511 114.601 254.357C115.477 256.137 113.319 257.85 111.493 258.737C109.53 259.689 107.568 260.641 105.605 261.593C93.5586 267.438 81.0125 273.41 67.53 273.771C52.7895 274.165 38.8656 267.817 25.5994 261.613C24.1249 260.924 22.5618 260.156 21.76 258.779C20.9583 257.401 21.4064 255.253 22.991 254.85C37.8734 251.057 51.9634 244.402 64.1895 235.389C63.2542 229.779 63.4746 223.992 64.8342 218.462C65.0308 217.662 65.3137 216.786 66.0534 216.376C67.8719 215.37 69.4515 218.021 69.7728 220.018C70.5839 225.059 71.3949 230.099 72.206 235.14C81.9451 234.102 91.3972 230.655 99.4089 225.219C93.1602 220.371 86.9114 215.522 80.6627 210.674C77.0572 207.876 73.577 206.202 71.6298 200.724C70.3316 197.072 71.3794 193.321 74.773 189.47C70.9846 171.279 69.327 157.567 69.8002 148.333C69.9265 145.868 70.2128 143.207 71.9347 141.38C74.9741 138.155 80.9422 139.546 83.7164 142.986C86.4907 146.425 86.9551 151.041 87.3138 155.383C97.8772 154.14 108.441 152.896 119.004 151.653C122.869 151.198 126.871 150.753 130.591 151.862C135.257 153.252 139.006 157.19 140.04 161.79C144.497 160.629 149.353 159.2 151.87 155.47C154.387 151.74 152.255 145.254 147.642 145.446C133.212 146.048 119.099 135.731 115.815 122.179C114.98 118.732 114.655 114.902 112.144 112.319C108.165 108.225 105.132 102.948 105.152 97.3398C105.171 91.7313 107.61 91.0621 109.371 86.0046ZM23.2349 258.607C23.5598 259.075 24.1269 259.32 24.664 259.541C30.1744 261.813 35.6848 264.085 41.1952 266.358C43.7025 267.391 46.2179 268.428 48.84 269.151C56.1526 271.167 64.0324 270.675 71.3031 272.827C72.1849 273.088 73.1316 272.819 74.0097 272.546C80.351 270.578 86.6177 268.387 92.7932 265.979C99.2539 263.459 105.656 260.68 111.393 256.865C111.915 256.518 112.456 256.132 112.694 255.566C112.932 255 112.713 254.213 112.103 254.046C108.232 252.986 104.417 251.737 100.677 250.303C99.4751 249.843 98.1218 249.186 97.8668 247.964C94.5726 248.091 91.6919 250.093 89.262 252.24C86.8322 254.387 84.5496 256.811 81.5556 258.141C78.5615 259.471 74.5431 259.356 72.4689 256.887C72.2474 256.623 72.025 256.32 71.6843 256.234C71.3437 256.148 70.9062 256.475 71.0649 256.778C71.4761 257.563 70.5929 258.555 69.6826 258.5C68.7723 258.445 68.0606 257.647 67.8365 256.795C67.6124 255.943 66.3962 257.464 64.6334 257.718C62.8707 257.971 61.0006 256.881 60.4151 255.259C59.9326 253.923 58.0406 253.899 56.595 253.649C53.3078 253.08 50.8117 249.761 51.274 246.575C41.8271 249.61 32.5514 253.141 23.5017 257.145C22.9708 257.38 22.91 258.139 23.2349 258.607Z" fill="white"/>
<path d="M155.861 127.493C158.634 127.493 160.883 125.327 160.883 122.654C160.883 119.981 158.634 117.815 155.861 117.815C153.087 117.815 150.838 119.981 150.838 122.654C150.838 125.327 153.087 127.493 155.861 127.493Z" fill="#FFB61D"/>
<path d="M120.997 123.508C122.466 123.508 123.656 122.361 123.656 120.946C123.656 119.531 122.466 118.384 120.997 118.384C119.529 118.384 118.338 119.531 118.338 120.946C118.338 122.361 119.529 123.508 120.997 123.508Z" fill="#FFB61D"/>
<path fill-rule="evenodd" clip-rule="evenodd" d="M179.846 142.077C180.306 144.377 181.673 146.605 183.494 147.987C186.878 150.557 194.486 153.203 198.536 154.621C198.904 154.75 196.826 155.881 194.144 158.381C186.882 165.15 171.002 177.272 155.489 171.18C153.676 170.468 152.16 169.649 150.925 168.78C149.787 167.979 160.232 169.132 169.995 167.349C179.813 165.556 188.947 160.818 186.502 157.062C184.204 153.531 177.741 147.551 177.237 144.033C176.565 139.347 179.45 140.1 179.846 142.077Z" fill="#E7EAEE"/>
<path fill-rule="evenodd" clip-rule="evenodd" d="M23.0355 257.276C23.0355 255.399 29.1791 253.88 39.6815 250.073C46.905 247.455 60.9847 239.88 67.912 239.527C72.5215 239.293 90.9427 245.79 102.965 250.457C109.01 252.803 113.673 254.273 113.673 255.026C113.673 256.538 100.838 263.838 87.7195 268.636C81.3166 270.978 75.3093 273.075 69.8001 272.933C53.0038 272.502 23.0355 262.028 23.0355 257.276Z" fill="white"/>
<path fill-rule="evenodd" clip-rule="evenodd" d="M260.321 101.357C236.235 111.269 216.114 128.205 196.943 145.428L195.771 146.483C194.652 147.49 192.955 148.543 191.748 147.635L195.473 144.368C214.964 127.305 235.117 110.386 259.233 100.334C277.775 92.606 277.578 94.2555 260.321 101.357ZM156.574 266.455L167.872 278.312C168.426 278.893 169.003 279.517 169.158 280.292C169.313 281.066 168.847 282.012 168.032 282.094L144.769 284.438C140.905 284.827 136.965 282.246 135.852 278.66C134.74 275.073 136.521 270.872 139.886 269.002C143.251 267.131 147.867 267.721 150.661 270.323C151.353 270.967 152.568 270.42 153.059 269.622C153.55 268.825 153.657 267.847 154.164 267.059C154.672 266.272 155.923 265.772 156.574 266.455ZM137.814 273.299C136.372 275.937 137.284 279.51 139.753 281.307C140.963 282.188 142.448 282.66 143.945 282.893C146.06 283.221 148.513 282.972 149.873 281.378C150.369 280.796 150.673 280.082 150.881 279.356C151.571 276.938 151.22 274.26 149.927 272.084C149.575 271.492 149.033 270.874 148.325 270.903C147.989 270.917 147.676 271.081 147.342 271.114C146.784 271.17 146.268 270.863 145.76 270.635C142.955 269.377 139.257 270.661 137.814 273.299ZM155.57 268.833C155.126 270.618 154.207 272.29 152.925 273.648C152.564 274.03 152.652 274.62 152.725 275.133C153.082 277.626 152.492 280.235 151.093 282.36C153.386 281.837 155.732 281.524 158.087 281.427C161.314 281.295 164.682 281.545 167.641 280.294C166.06 279.631 164.719 278.452 163.889 276.996C163.4 276.14 162.725 275.399 162.055 274.666L156.911 269.034C156.539 268.627 155.701 268.306 155.57 268.833ZM97.1473 268.726C97.885 270.946 100.66 271.706 103.063 272.106L119.105 274.687C122.814 275.284 126.621 275.88 130.31 275.175C131.006 275.042 131.374 276.107 130.915 276.628C130.456 277.149 129.657 277.211 128.947 277.213C125.734 277.224 122.539 276.812 119.358 276.351L115.97 275.854C109.974 274.966 103.981 274.021 98.1117 272.549C97.1071 272.297 96.0664 272.009 95.2974 271.337C94.5284 270.666 94.1284 269.492 94.6696 268.639C95.2107 267.785 96.8307 267.774 97.1473 268.726ZM183.856 31.3379C195.478 32.2657 205.121 42.3193 206.683 53.4543C207.9 62.1306 203.277 72.4651 194.338 74.0367C197.498 84.9144 199.255 96.3595 197.52 107.531C195.786 118.702 190.268 129.615 180.956 136.478C178.385 139.81 180.327 144.836 183.712 147.406C187.096 149.976 191.477 150.879 195.527 152.297C212.496 158.24 224.444 174.371 227.229 191.559C230.014 208.748 224.451 226.574 214.399 241.025C207.513 250.923 198.146 259.713 186.427 263.519C170.142 268.809 152.303 263.763 136.45 257.307L135.97 257.111C130.008 254.667 123.939 251.896 119.654 247.23L119.383 246.93C114.775 241.733 106.067 244.54 99.7873 247.718L112.314 252.726C113.211 253.085 114.185 253.511 114.601 254.357C115.477 256.137 113.319 257.85 111.493 258.737L104.138 262.304C92.5398 267.913 80.4659 273.424 67.53 273.771C52.9609 274.161 39.1895 267.964 26.0624 261.83L25.2294 261.439C23.8696 260.792 22.495 260.041 21.76 258.779C20.9583 257.401 21.4064 255.253 22.991 254.85C37.8734 251.057 51.9634 244.402 64.1895 235.389C63.2542 229.779 63.4746 223.992 64.8342 218.462L64.9034 218.193C65.0993 217.473 65.3959 216.74 66.0534 216.376C67.8719 215.37 69.4515 218.021 69.7728 220.018L72.206 235.14C81.9451 234.102 91.3972 230.655 99.4089 225.219L80.1588 210.282C76.7122 207.595 73.2227 204.69 71.6298 200.724C69.9591 196.564 71.3032 190.926 75.6205 189.316C75.9611 173.559 75.0991 157.778 73.0436 142.142C70.2014 157.758 72.4856 173.769 74.773 189.47C70.8509 176.389 69.1526 162.691 69.7638 149.088L69.8002 148.333C69.9265 145.868 70.2128 143.207 71.9347 141.38C74.9741 138.155 80.9422 139.546 83.7164 142.986C86.4907 146.425 86.9551 151.041 87.3138 155.383L119.73 151.568C123.368 151.148 127.103 150.823 130.591 151.862C135.257 153.252 139.006 157.19 140.04 161.79L140.8 161.59C145.04 160.46 149.495 158.988 151.87 155.47C154.36 151.78 152.3 145.391 147.788 145.442L147.642 145.446C133.212 146.048 119.099 135.731 115.815 122.179C114.98 118.732 114.655 114.902 112.144 112.319C108.165 108.225 105.132 102.948 105.152 97.3398C105.171 91.7313 108.883 85.9473 114.535 84.6066C120.187 83.2659 126.877 87.8096 126.389 93.3984C129.131 93.1294 131.936 93.4733 134.521 94.3954C133.047 90.566 136.868 86.3392 141.068 85.7834C145.267 85.2276 149.359 87.2486 152.852 89.5635C156.344 91.8785 159.681 94.6038 163.741 95.7771L163.929 95.3598C164.768 93.4721 165.541 91.456 165.118 89.4604C164.663 87.3171 162.157 85.4634 160.128 86.4448C158.704 82.5124 156.437 78.8653 153.512 75.7987L145.382 79.4917C144.334 77.9803 143.693 76.2101 143.536 74.3989C138.168 77.3546 132.342 79.5359 126.311 80.8478L126.928 76.4114L108.907 85.4304C106.246 73.4791 113.209 60.6562 124.043 54.2959C134.876 47.9356 148.733 47.4999 160.799 51.2769C160.414 40.0468 172.234 30.4101 183.856 31.3379ZM272.517 226.13C262.134 228.544 252.056 232.169 242.571 236.9L241.885 237.245C236.629 239.913 231.47 243.109 228.176 247.853C230.401 247.481 232.776 248.04 234.572 249.357C235.707 250.19 236.655 251.437 236.588 252.81C236.553 253.522 236.246 254.2 235.832 254.791C234.216 257.098 230.795 258.035 228.161 256.891C225.527 255.747 223.989 252.657 224.712 249.962C213.539 253.638 203.934 261.546 198.412 271.599L198.227 271.939C197.955 272.445 197.623 273.011 197.046 273.137C196.253 273.31 195.546 272.456 195.583 271.673C195.619 270.89 196.14 270.216 196.643 269.6C203.154 261.635 210.763 254.052 220.501 250.207L221.234 249.923C223.531 249.045 225.936 248.184 227.419 246.311C231.017 241.77 236.197 238.652 241.457 236.013C246.164 233.652 251.033 231.591 256.023 229.847C261.029 228.097 266.148 226.67 271.278 225.287L288.657 220.625C283.957 223.808 278.101 224.832 272.517 226.13ZM51.274 246.575C41.8271 249.61 32.5514 253.141 23.5017 257.145C22.9708 257.38 22.91 258.139 23.2349 258.607C23.5598 259.075 24.1269 259.32 24.664 259.541L41.1952 266.358C43.7025 267.391 46.2179 268.428 48.84 269.151C56.1526 271.167 64.0324 270.675 71.3031 272.827C72.1849 273.088 73.1316 272.819 74.0097 272.546C80.351 270.578 86.6177 268.387 92.7932 265.979C99.2539 263.459 105.656 260.68 111.393 256.865C111.915 256.518 112.456 256.132 112.694 255.566C112.932 255 112.713 254.213 112.103 254.046C108.232 252.986 104.417 251.737 100.677 250.303L100.418 250.201C99.2874 249.746 98.1036 249.098 97.8668 247.963C94.5726 248.091 91.6919 250.093 89.262 252.24C86.8322 254.387 84.5496 256.811 81.5556 258.141C78.5615 259.471 74.5431 259.356 72.4689 256.887L72.335 256.726C72.1537 256.511 71.9568 256.303 71.6843 256.234C71.3437 256.148 70.9062 256.475 71.0649 256.778C71.4761 257.563 70.5929 258.555 69.6826 258.5C68.7723 258.445 68.0606 257.647 67.8365 256.795C67.6924 256.247 67.7051 255.681 67.774 255.116L67.7913 254.977C67.3866 256.359 66.1178 257.504 64.6334 257.718C62.8707 257.971 61.0006 256.881 60.4151 255.259C59.9326 253.923 58.0406 253.899 56.595 253.649C53.3078 253.08 50.8117 249.761 51.274 246.575ZM73.5992 193.383C71.6519 196.72 73.4606 200.944 75.8592 203.996C83.3806 213.568 95.9786 218.162 104.574 226.855C106.734 229.039 108.617 231.458 110.475 233.887L116.317 241.532C117.39 242.936 118.468 244.346 119.721 245.605C122.988 248.89 127.289 251.009 131.543 252.982C140.176 256.984 149.056 260.661 158.429 262.572C167.801 264.482 177.759 264.547 186.777 261.432C195.217 258.516 202.49 252.924 208.14 246.216C213.656 239.668 217.705 232.077 220.95 224.242L221.186 223.668C221.653 222.525 222.112 221.329 222.015 220.105C221.912 218.81 221.196 217.632 220.36 216.614C217.173 212.729 211.847 210.532 206.747 211.139C201.726 211.736 197.128 215.093 195.289 219.629L195.203 219.846C191.206 230.286 181.253 238.138 170.072 240.924C158.891 243.71 146.73 241.713 136.524 236.505C126.319 231.297 117.991 223.052 111.782 213.67L111.443 213.152C110.321 211.417 109.301 209.592 108.907 207.59C108.472 205.389 108.914 202.913 110.564 201.334C111.654 200.291 113.205 199.679 113.998 198.411C114.79 197.143 113.859 194.903 112.397 195.356L111.421 195.654C104.699 197.669 96.9004 199.232 91.4924 195.039L90.9727 194.638C88.4495 192.706 85.7531 190.862 82.6183 190.198C79.2673 189.488 75.2806 190.501 73.5992 193.383ZM100.395 227.214C92.2415 232.178 83.0399 235.536 73.5194 237.022C72.2625 237.218 71.9247 238.788 71.9049 240.015C71.8421 243.914 72.038 247.816 72.4912 251.691C73.5224 251.223 73.9443 250.054 74.6473 249.19C75.3504 248.326 76.9549 247.852 77.4983 248.817C77.878 249.492 77.3713 250.336 76.7243 250.784C76.0774 251.231 75.2818 251.473 74.7048 252.001C73.2695 253.317 74.0197 255.903 75.7685 256.8C77.5172 257.696 79.7293 257.228 81.4059 256.212C83.0825 255.196 84.3778 253.705 85.7994 252.376C88.8398 249.534 92.5588 247.369 96.5848 246.099C101.696 244.485 107.387 244.246 111.884 241.403C112.186 241.211 112.5 240.986 112.614 240.655C112.77 240.203 112.506 239.733 112.226 239.331L106.846 231.804C105.989 230.605 105.003 229.317 103.535 228.974C102.863 228.817 102.147 228.878 101.489 228.678C100.83 228.478 100.209 227.855 100.395 227.214ZM62.8342 238.148C60.7367 239.091 59.4953 241.31 59.2191 243.525C58.9428 245.739 59.4853 247.969 60.1297 250.111C60.5252 251.426 60.9638 252.737 61.618 253.953C62.0351 254.728 62.5874 255.501 63.4233 255.837C64.2591 256.174 65.4192 255.871 65.6908 255.039C65.8028 254.696 65.7526 254.325 65.6878 253.97C65.4444 252.639 65.0076 251.341 64.3947 250.126L64.1373 249.633C63.7686 248.922 63.4213 248.084 63.8954 247.463C64.3481 246.871 65.4607 246.626 65.3544 245.898L64.3156 238.783C64.2852 238.575 64.2496 238.355 64.1094 238.194C63.8143 237.856 63.2498 237.961 62.8342 238.148ZM229.134 249.122C228.442 249.119 227.713 249.211 227.157 249.609C226.831 249.842 226.585 250.167 226.413 250.52C225.682 252.014 226.356 253.933 227.741 254.905C229.126 255.877 231.045 255.968 232.648 255.386C233.874 254.94 235.054 253.932 235.013 252.67C234.98 251.674 234.196 250.843 233.331 250.297C232.095 249.518 230.611 249.128 229.134 249.122ZM66.7699 217.986C66.5926 218.113 66.5049 218.323 66.43 218.523C65.3393 221.439 65.2058 224.599 65.2359 227.699C65.3113 235.47 66.3475 243.232 68.3155 250.768L68.4133 251.135C68.8156 252.606 69.3656 254.116 70.6114 255.026C70.8432 243.083 70.0389 231.121 68.2098 219.307C68.0911 218.54 67.4157 217.523 66.7699 217.986ZM56.9473 243.657C56.6869 243.727 56.5197 243.966 56.3898 244.195C55.3261 246.065 55.2543 248.427 56.2025 250.354C56.6277 251.218 57.3567 252.058 58.3429 252.164C58.7449 251.682 58.5612 250.986 58.3359 250.396L58.1414 249.896C57.4175 248.005 56.8234 245.959 57.4615 244.059C57.5447 243.811 57.2077 243.586 56.9473 243.657ZM53.3989 246.247C52.653 247.845 52.9853 249.855 54.2095 251.151C54.7148 250.653 54.4926 249.838 54.32 249.162C54.0499 248.104 53.989 246.996 54.1413 245.917C53.9531 245.651 53.536 245.953 53.3989 246.247ZM69.1211 189.299C70.2518 190.237 70.9707 192.263 69.6279 192.89C68.7676 193.292 67.7927 192.704 66.9803 192.218C62.759 189.695 57.3615 189.509 52.5757 190.793C47.7898 192.076 43.5112 194.691 39.4956 197.51C35.4967 200.316 31.6408 203.395 28.6338 207.18C25.6269 210.965 23.5 215.527 23.3255 220.29C23.1164 225.998 25.6759 231.456 28.6355 236.404C30.5218 239.559 32.649 242.668 35.5772 244.958L36.1792 245.417C37.0098 246.06 37.8627 246.856 37.6509 247.823C34.7807 247.698 32.6975 245.224 31.1169 242.912C28.8693 239.625 26.8205 236.212 24.9844 232.695C23.4576 229.771 22.062 226.725 21.5982 223.482C20.7259 217.384 23.2955 211.184 27.2894 206.379C31.2834 201.574 36.5988 197.969 41.9749 194.642C46.0585 192.116 50.2612 189.693 54.8452 188.158C59.5727 186.575 65.329 186.152 69.1211 189.299ZM190.442 162.44C183.644 168.554 174.608 172.31 165.327 172.879C161.226 173.13 156.991 172.752 153.279 171.051C149.568 169.35 146.442 166.177 145.579 162.306L145.271 162.397C142.585 163.216 139.509 164.698 139.536 167.365C139.651 178.678 139.378 189.994 138.717 201.288C138.591 203.456 137.734 206.301 135.482 206.237C127.481 206.011 119.427 207.791 112.328 211.355C120.318 223.428 131.682 233.984 145.816 238.406C159.951 242.828 176.998 240.065 186.903 229.39C190.078 225.968 192.415 221.923 194.665 217.87L195.183 216.935C195.662 216.071 196.149 215.044 195.723 214.154C195.452 213.586 196.037 212.995 196.575 212.645C204.479 207.49 216.247 208.889 222.615 215.739C222.11 214.788 222.569 213.478 223.568 213.015C224.362 214.245 224.53 215.831 224.01 217.19C224.354 217.659 224.986 216.905 225.04 216.333C225.889 207.428 225.823 198.443 224.842 189.551C224.488 186.344 224.007 183.118 222.817 180.105C221.772 177.462 220.203 175.04 218.484 172.749C214.528 167.477 209.719 162.801 204.284 158.941L203.889 158.664C203.027 158.07 202.12 157.522 201.102 157.255C197.072 156.198 193.496 159.694 190.442 162.44ZM135.526 157.318C131.032 158.775 126.166 158.495 121.436 158.81C114.77 159.254 108.194 160.924 102.168 163.704C99.572 164.901 97.061 166.308 94.316 167.141C88.4861 168.91 81.8032 167.818 76.9049 164.296C75.8489 172.063 76.1604 180.001 77.822 187.67C77.9287 188.162 78.2653 188.792 78.7646 188.644C82.0774 187.664 85.6406 189.051 88.5861 190.81C91.5317 192.569 94.2999 194.763 97.6456 195.634C101.57 196.655 105.73 195.711 109.615 194.524L109.905 194.435C111.897 193.819 114.472 193.305 115.749 194.901C116.826 196.247 116.146 198.258 115.006 199.555C113.866 200.852 112.319 201.816 111.389 203.26C110.247 205.033 110.241 207.428 111.374 209.206C118.794 206.339 126.735 204.731 134.724 204.477C136.326 204.426 136.888 202.428 136.987 200.887C137.85 187.378 138.114 173.833 137.78 160.303C137.745 158.861 136.945 156.858 135.526 157.318ZM255.647 193.848L255.965 194.001C257.932 194.965 260.026 196.248 260.319 198.324C260.416 199.008 260.294 199.702 260.126 200.373C259.892 201.301 259.537 202.254 258.788 202.879C257.994 203.543 256.878 203.731 255.828 203.692C253.76 203.614 251.69 202.686 250.492 201.06C249.294 199.434 249.101 197.108 250.219 195.43C251.337 193.751 253.793 192.962 255.647 193.848ZM252.58 196.17C251.354 196.663 250.913 198.26 251.424 199.441C251.936 200.622 253.151 201.399 254.413 201.798C255.704 202.205 257.367 202.172 258.137 201.093C258.393 200.734 258.514 200.301 258.585 199.871C258.739 198.934 258.646 197.896 258.019 197.164C257.243 196.258 255.919 196.076 254.682 196.008L254.374 195.994C253.769 195.967 253.14 195.945 252.58 196.17ZM97.8266 171.753C97.9817 172.32 97.8625 172.919 97.7565 173.496C97.0104 177.562 96.9564 181.746 97.5959 185.829L97.7141 186.552C97.7919 187.064 97.8238 187.603 97.519 188.014C97.1674 188.489 96.1818 188.441 96.1325 187.86C95.7128 182.913 95.4438 177.953 95.3261 172.99C95.3036 172.042 95.5604 170.782 96.5416 170.709C97.1483 170.664 97.6716 171.186 97.8266 171.753ZM63.296 161.838C64.0217 162.049 64.7188 162.528 64.9291 163.229C65.1394 163.931 64.6607 164.817 63.9044 164.863C63.1996 164.906 62.6616 164.287 62.014 164.016C60.8513 163.529 59.5468 164.209 58.4779 164.866L57.9338 165.205C56.9076 165.856 55.9135 166.586 55.35 167.625C54.7735 168.687 54.7252 169.935 54.7431 171.134C54.7555 171.967 54.796 172.812 55.0633 173.604C55.6433 175.324 57.2984 176.612 59.1343 176.984C60.9702 177.357 62.9337 176.874 64.4867 175.86L64.7907 175.661C65.0649 175.487 65.3524 175.335 65.675 175.32C66.1185 175.299 66.604 175.702 66.4533 176.105C66.408 176.225 66.3152 176.323 66.2223 176.415C63.6839 178.927 59.3005 179.465 56.1896 177.646C55.6346 177.321 55.1172 176.93 54.6978 176.452C53.4372 175.017 53.202 173.006 53.1673 171.126C53.1485 170.109 53.1746 169.076 53.4747 168.101C54.1231 165.993 55.9555 164.428 57.8599 163.217C59.4769 162.189 61.4409 161.301 63.296 161.838ZM48.6096 157.514L54.938 164.755C54.5899 165.118 53.9797 165.142 53.5094 164.945C53.0913 164.77 52.7578 164.456 52.4436 164.135L48.7305 160.287C48.2242 164.192 46.9979 168.01 45.1259 171.508C44.9437 171.848 45.4599 172.136 45.8554 172.175C46.8212 172.27 47.7978 172.164 48.7502 171.982L49.241 171.887C50.01 171.74 50.7987 171.624 51.5157 171.898C52.3862 172.23 52.9235 173.451 52.2253 174.052C51.795 174.423 51.1431 174.377 50.5703 174.309L44.4069 173.574L44.2175 173.548C43.6091 173.452 42.9403 173.222 42.8511 172.657C42.7974 172.317 42.9937 171.991 43.1775 171.696C45.3712 168.168 46.8327 164.22 47.4532 160.151L47.5467 159.506C47.6672 158.714 47.8807 157.855 48.6096 157.514ZM264.221 168.891C264.984 169.411 265.705 170.434 265.113 171.132C264.743 171.569 264.029 171.58 263.497 171.345C262.965 171.109 262.551 170.688 262.092 170.338C260.209 168.904 257.381 168.753 255.344 169.978C255.055 170.152 254.766 170.369 254.649 170.678C254.531 170.987 254.661 171.402 254.989 171.496C257.588 170.434 260.686 170.583 263.164 171.887C263.522 172.075 263.898 172.326 263.986 172.71C264.074 173.094 263.646 173.554 263.29 173.362C261.674 172.49 259.744 172.17 257.918 172.469C257.067 172.608 256.234 172.878 255.371 172.905C254.508 172.931 253.563 172.653 253.105 171.948C252.682 171.297 252.783 170.419 253.195 169.762C253.607 169.105 254.283 168.639 254.99 168.285C257.868 166.842 261.573 167.085 264.221 168.891ZM178 133.687C171.829 138.685 164.578 142.438 156.847 144.639L156.331 144.783C155.327 145.059 154.064 145.672 154.275 146.657L154.405 147.268C154.791 149.105 155.118 150.977 154.843 152.826C154.546 154.82 153.405 156.816 151.517 157.654L151.344 157.727C147.982 159.06 147.509 163.899 149.714 166.684C151.918 169.47 155.742 170.548 159.353 170.951C169.953 172.132 181.014 168.707 188.916 161.799C191.782 159.293 194.347 156.294 197.895 154.805L189.022 151.676C186.628 150.831 184.203 149.971 182.119 148.557C180.035 147.142 178.298 145.082 177.872 142.66C177.35 139.694 178.826 136.589 178 133.687ZM75.6391 141.707C75.4164 141.802 75.189 141.929 75.0819 142.14C74.9747 142.351 75.0109 142.601 75.0487 142.833L77.0818 155.181C77.681 158.82 78.5227 162.852 81.6376 164.99C85.0496 167.331 89.7352 166.414 93.7084 165.077L93.9206 165.005C101.317 162.474 108.435 158.951 116.186 157.765C121.752 156.914 127.588 157.279 132.851 155.337C130.926 152.538 126.755 152.553 123.267 152.92L94.7665 156.041C92.5585 156.283 90.2394 156.565 88.4463 157.829C87.6617 158.383 86.9189 159.143 85.9474 159.182C85.0022 159.219 84.1806 157.893 84.9214 157.405L84.9868 157.366C85.7991 156.936 85.7445 155.812 85.5782 154.933L84.7162 150.379C84.2804 148.12 83.7482 145.822 82.3455 143.977C80.8307 141.986 77.981 140.704 75.6391 141.707ZM272.395 160.163C273.082 160.934 273.112 162.117 272.654 163.033C272.196 163.948 271.328 164.621 270.39 165.085C269.258 165.645 268.011 165.937 266.761 166.186L266.137 166.308C265.892 166.355 265.634 166.402 265.397 166.326C265.201 166.263 265.041 166.121 264.912 165.964C264.267 165.186 264.29 164.037 264.726 163.134C265.162 162.231 265.942 161.529 266.744 160.901C267.564 160.258 268.456 159.653 269.484 159.418C270.512 159.183 271.707 159.391 272.395 160.163ZM269.025 161.518L268.696 161.731C268.205 162.056 267.731 162.41 267.4 162.884C266.996 163.462 266.856 164.27 267.254 164.852L269.898 163.435C270.328 163.204 270.775 162.96 271.054 162.569C271.333 162.178 271.389 161.594 271.044 161.255C270.525 160.747 269.641 161.124 269.025 161.518ZM226.857 133.642C227.041 133.714 227.166 133.875 227.274 134.04L231.146 140.135C231.839 141.224 233.413 141.345 234.736 141.256C237.269 141.084 239.779 140.585 242.177 139.778C242.58 139.643 242.961 140.136 242.875 140.538C242.788 140.94 242.429 141.226 242.093 141.478L236.276 145.847C235.562 145.798 235.765 144.672 236.344 144.266L236.516 144.151C237.074 143.788 237.751 143.43 237.716 142.806L234.354 143.818C233.712 144.011 232.999 144.201 232.388 143.93C231.983 143.749 231.698 143.395 231.441 143.038L227.171 137.032L227.097 142.292C227.091 142.723 227.072 143.191 226.788 143.524C226.586 143.761 226.284 143.888 225.983 143.995L220.09 146.032C221.664 147.548 224.609 145.953 226.493 147.096C227.783 147.878 228.003 149.623 227.725 151.067C227.446 152.511 226.808 153.916 226.891 155.383C227.967 154.632 228.756 153.509 229.083 152.268C229.214 151.768 229.279 151.236 229.568 150.802C230.364 149.604 232.266 149.848 233.583 150.488C234.901 151.129 236.269 152.051 237.711 151.746L235.619 148.524C235.428 148.23 235.23 147.911 235.247 147.565C235.264 147.219 235.605 146.868 235.95 146.969C236.101 147.013 236.213 147.128 236.313 147.249L240.979 153.077C239.341 154.118 237.178 153.462 235.286 152.96L235.005 152.889C233.159 152.449 230.905 152.405 229.886 153.913C229.167 154.975 228.324 155.959 227.378 156.84C226.979 157.211 226.524 157.581 225.973 157.642C225.422 157.702 224.789 157.3 224.838 156.768L225.38 150.874C225.416 150.493 225.442 150.077 225.222 149.759C224.989 149.423 224.551 149.292 224.147 149.185L219.049 147.828C217.941 147.533 217.933 145.871 218.764 145.106C219.596 144.34 220.82 144.18 221.928 143.884C223.036 143.588 224.235 142.959 224.435 141.868L225.728 134.807C225.839 134.203 226.267 133.412 226.857 133.642ZM89.6899 34.0884L88.7484 34.8256C82.475 39.7513 76.2931 44.9152 71.6922 51.3183C66.8612 58.0416 63.8954 66.3786 65.3336 74.4376C67.4295 86.1816 78.3321 95.5344 78.7982 107.442C78.8601 109.024 80.5319 110.008 81.9305 110.839C87.4502 114.116 91.5405 119.318 94.2395 124.998C96.8542 130.501 98.2501 136.463 99.2652 142.439L99.3623 143.017C99.5134 143.928 99.6239 144.966 99.0138 145.677C98.4036 146.388 96.835 146.139 96.8959 145.218C97.6118 134.391 93.5279 123.346 85.8686 115.394C83.8789 113.328 81.5676 111.413 78.7656 110.604C78.5872 114.774 77.1299 119.024 74.0449 121.954C70.96 124.884 66.0933 126.223 62.0996 124.606C58.106 122.989 55.6627 118.107 57.4601 114.309C58.9658 111.128 62.7051 109.521 66.2653 108.843C69.7585 108.179 73.3797 108.144 76.886 108.742C77.3578 108.822 77.5633 108.187 77.5539 107.725C77.3003 95.3478 65.4257 85.6572 63.8669 73.3688C63.0151 66.6531 65.3932 59.8928 68.8445 54.0007C73.3768 46.2631 79.8244 39.5752 87.4996 34.6503L87.7005 34.5247C88.3153 34.1518 89.0319 33.8338 89.6899 34.0884ZM128.788 97.1295C127.07 98.1945 127.114 100.558 126.972 102.522C126.777 105.215 125.816 107.911 123.941 109.919C122.066 111.926 119.218 113.159 116.438 112.822C115.718 112.735 115.5 113.737 115.594 114.43C117.21 126.301 124.685 137.957 136.302 142.207C143.404 144.806 151.426 144.461 158.667 142.246C165.735 140.083 172.133 136.238 177.98 131.836L178.406 131.513C179.254 130.867 180.107 130.195 180.696 129.323C181.293 128.438 181.587 127.391 181.731 126.344C182.498 120.737 178.609 114.87 173.006 113.182C172.347 112.983 172.499 111.953 173.078 111.589C173.656 111.225 174.401 111.25 175.062 111.055C176.852 110.528 177.675 108.564 178.084 106.804C178.645 104.387 178.803 101.629 177.247 99.6559C175.146 96.9893 171.059 96.9927 167.594 97.2482L161.971 97.6629C160.031 97.8061 157.533 98.465 157.442 100.338C157.246 104.373 155.401 108.391 152.142 110.932C148.883 113.472 144.191 114.35 140.322 112.795C136.515 111.265 133.825 107.272 134.265 103.329L134.289 103.138C134.518 101.471 134.392 99.6596 133.378 98.29C132.363 96.9205 130.257 96.2194 128.788 97.1295ZM175.228 34.0858C172.721 34.7726 170.313 35.8802 168.333 37.5143C165.567 39.798 163.728 43.0981 163.281 46.5813C163.122 47.8154 163.377 49.4072 164.621 49.7387C167.66 50.5487 170.379 52.4269 172.151 54.9399C169.278 53.2927 166.128 52.0942 162.863 51.4052L176.666 58.9309C177.467 59.3672 178.297 59.8304 178.801 60.5718C179.304 61.3132 179.356 62.4196 178.665 63.0035L177.7 62.28C175.282 60.4765 172.809 58.7284 170.103 57.3635C168.044 56.3257 165.872 55.5206 163.688 54.7536L162.496 54.3378C158.453 52.9323 154.373 51.5179 150.114 50.9564C146.161 50.4351 142.103 50.6665 138.242 51.6334L137.48 51.8214C132.264 53.0932 126.825 54.1331 122.513 57.206C119.947 59.0339 117.938 61.4809 116.031 63.9452L115.581 64.5333C111.791 69.5468 108.328 75.7279 110.545 81.4799C120.726 80.2717 128.657 72.6826 137.879 68.3564C138.584 68.0258 139.746 67.9246 139.853 68.6729L129.534 74.5484C129.82 76.0657 129.549 77.6751 128.78 79.0274C136.32 76.9747 143.369 73.2682 149.242 68.272L149.615 67.9513C150.546 67.1433 152.341 66.4747 152.738 67.6203L152.233 67.892C150.381 68.8957 148.539 69.9935 147.263 71.6188C145.87 73.3919 145.316 75.9694 146.55 77.8481L159.577 70.4576C160.106 70.1574 160.684 69.8464 161.294 69.9082C161.905 69.97 162.478 70.6038 162.214 71.1381L161.771 71.2271C160.365 71.5149 158.939 71.8755 157.844 72.7581C156.634 73.7335 156.007 75.5621 156.906 76.8112C158.519 79.0518 159.828 81.4953 160.789 84.0601C160.81 82.9386 162.397 82.365 163.443 82.8574C164.489 83.3498 165.042 84.4612 165.421 85.5218C166.505 88.5557 166.792 91.851 166.247 95.0164C169.522 96.1309 173.365 94.8145 176.516 96.2242C179.44 97.5328 180.871 100.927 180.668 104.028C180.465 107.129 178.944 109.996 177.32 112.68C181.859 116.068 184.283 121.904 183.425 127.374C184.216 127.249 184.885 126.591 184.997 125.826L186.797 126.921C183.982 128.454 181.979 131.299 181.541 134.387C193.911 123.234 198.018 105.558 196.233 89.3257L196.163 88.7203C195.456 82.8588 193.773 76.7489 189.198 72.8663C191.651 71.5036 194.797 72.0396 197.421 71.0164C199.901 70.0497 201.605 67.8088 202.757 65.4822C206.605 57.7037 205.28 47.807 199.508 41.2245C193.737 34.642 183.831 31.7295 175.228 34.0858ZM134.79 131.637C135.181 131.699 135.623 131.826 135.776 132.177C136.02 132.738 135.336 133.251 134.744 133.464C133.885 133.772 132.983 133.97 132.07 134.049C131.304 134.116 130.337 133.974 130.1 133.268C129.945 132.805 130.215 132.284 130.625 131.998C131.034 131.712 131.552 131.615 132.055 131.563C132.965 131.468 133.888 131.493 134.79 131.637ZM120.797 123.593C123.489 126.641 127.701 128.255 131.855 128.287C136.009 128.318 140.084 126.871 143.533 124.64L143.823 124.452C144.261 124.172 144.715 123.908 145.229 123.822C145.857 123.717 146.603 123.971 146.817 124.55C143.21 127.501 138.688 129.451 133.975 129.863C129.262 130.275 124.38 129.11 120.534 126.452C119.841 125.973 119.123 125.342 119.095 124.52C119.066 123.698 120.244 122.966 120.797 123.593ZM64.3716 110.681C62.4997 111.257 60.6159 112.1 59.4349 113.613C57.6806 115.861 57.9874 119.271 59.8821 121.41C61.7769 123.549 64.9808 124.403 67.8393 123.835C70.6978 123.266 73.1795 121.408 74.7858 119.06C76.3921 116.712 77.1785 113.909 77.4168 111.106C77.4568 110.636 77.3681 110.014 76.8871 109.928C72.7358 109.183 68.3945 109.445 64.3716 110.681ZM130.703 99.7296C130.781 100.376 130.521 101.01 130.283 101.619C128.935 105.06 128.114 108.691 127.856 112.36C127.814 112.955 127.79 113.571 128.016 114.125C128.23 114.649 128.726 115.104 129.301 115.136L129.403 115.137C129.926 115.119 130.175 115.871 129.845 116.263C129.516 116.655 128.899 116.699 128.397 116.555C127.366 116.26 126.627 115.336 126.328 114.34C126.029 113.345 126.106 112.283 126.256 111.257C126.763 107.779 128.081 104.407 128.146 100.895C128.164 99.9037 128.374 98.5678 129.4 98.4889C130.073 98.4371 130.625 99.0831 130.703 99.7296ZM143.512 87.991C141.372 88.4154 139.737 90.1075 138.627 91.9214C136.353 95.6376 135.705 100.245 136.871 104.411C137.394 106.281 138.289 108.089 139.693 109.475C141.097 110.861 143.048 111.792 145.059 111.76C146.462 111.738 147.823 111.258 149.042 110.588C153.113 108.35 155.699 103.816 155.476 99.3055C155.254 94.7955 152.233 90.5176 147.961 88.662C146.57 88.0578 145.007 87.6947 143.512 87.991ZM113.966 86.1419C110.141 87.5073 107.672 91.3347 107.146 95.2321C106.619 99.1295 107.754 103.072 109.371 106.68C109.807 107.652 110.302 108.64 111.138 109.326C111.974 110.013 113.24 110.32 114.191 109.789C114.633 109.542 115.046 110.12 115.382 110.492C116.051 111.232 117.227 111.295 118.226 111.103C121.518 110.469 124.047 107.698 125.071 104.618C126.061 101.641 125.85 98.4179 125.265 95.3369L125.203 95.0187C124.586 91.9116 123.193 88.4196 120.053 87.4944C118.407 87.0093 116.421 87.2927 115.148 86.1757C114.841 85.906 114.356 86.0028 113.966 86.1419ZM174.753 99.3163C176.046 100.698 175.517 102.843 174.87 104.615L174.817 104.758C174.558 105.453 174.29 106.164 173.795 106.728C173.3 107.291 172.522 107.685 171.772 107.535C171.021 107.384 170.437 106.546 170.752 105.873C171.143 105.037 172.473 104.995 172.952 104.203L171.656 104.085C170.783 104.006 169.843 103.899 169.196 103.328C168.549 102.758 168.468 101.55 169.254 101.176C169.799 100.917 170.456 101.171 170.96 101.497C171.465 101.824 171.948 102.238 172.549 102.327C173.15 102.416 173.88 101.961 173.756 101.388C173.584 100.589 174.009 99.7056 174.753 99.3163ZM145.159 104.708C145.261 105.258 145.299 105.84 145.085 106.359C144.872 106.878 144.352 107.312 143.774 107.288C142.877 107.252 142.398 106.258 142.241 105.407C142.048 104.356 142.35 102.909 143.455 102.831C144.401 102.764 144.991 103.809 145.159 104.708ZM117.55 102.477C117.996 103.104 117.933 103.941 117.756 104.682C117.529 105.629 116.958 106.687 115.954 106.786C115.047 106.875 114.273 106.093 113.977 105.263C113.615 104.249 113.791 103.011 114.612 102.288C115.433 101.565 116.92 101.593 117.55 102.477ZM118.386 91.7813C118.786 91.9587 119.069 92.4453 118.866 92.8227L118.478 92.9207C116.272 93.4881 113.919 94.2777 112.865 96.2001C112.613 96.6608 112.449 97.1692 112.134 97.593C111.82 98.0168 111.289 98.3537 110.76 98.2464C110.157 98.124 109.808 97.4553 109.873 96.8647C109.937 96.2742 110.31 95.7594 110.709 95.3072C112.334 93.4682 114.623 92.1853 117.085 91.7341C117.519 91.6547 117.985 91.6038 118.386 91.7813ZM146.589 92.843C147.249 93.3553 147.75 94.0381 148.417 94.542C148.98 94.9677 149.692 95.3043 149.948 95.9486C150.204 96.5928 149.434 97.5026 148.875 97.0713C147.417 95.945 145.797 95.012 144.077 94.3067C143.297 93.9869 143.474 92.7227 144.235 92.3628C144.996 92.0029 145.929 92.3307 146.589 92.843ZM138.416 88.8028C136.978 89.2595 135.956 90.7173 136.054 92.173C136.604 91.9018 137.023 91.3951 137.174 90.8181L137.152 90.7598C137.791 90.2739 138.246 89.5692 138.416 88.8028Z" fill="#00160A"/>
<path fill-rule="evenodd" clip-rule="evenodd" d="M57.3978 263.26C57.9762 263.265 58.5082 263.523 59.0136 263.808L59.2867 263.964C62.3845 265.751 65.6532 267.262 69.038 268.473C69.5031 268.639 69.3587 269.392 68.9053 269.586C68.4519 269.78 67.9286 269.607 67.4662 269.434L57.4702 265.686C56.8305 265.446 56.088 265.081 56.0319 264.422C55.976 263.765 56.7142 263.255 57.3978 263.26Z" fill="#E7EAEE"/>
<path fill-rule="evenodd" clip-rule="evenodd" d="M41.4621 252.767L72.3851 263.336L72.5794 263.406C73.3967 263.714 74.2806 264.24 74.1933 265.054C74.1221 265.716 73.3611 266.143 72.6702 266.121C72.0855 266.102 71.5455 265.852 71.0288 265.576L70.7492 265.425C66.4376 263.068 61.9139 261.125 57.2744 259.445C52.0189 257.543 46.6149 255.98 41.2021 254.541C40.3744 254.32 39.3254 253.608 39.8001 252.918C40.133 252.435 40.8945 252.573 41.4621 252.767Z" fill="#E7EAEE"/>
</svg>
